M48
<<<<<<< HEAD
; DRILL file {KiCad 8.0.7} date 2025-03-23T00:34:39-0400
; FORMAT={-:-/ absolute / inch / decimal}
; #@! TF.CreationDate,2025-03-23T00:34:39-04:00
; #@! TF.GenerationSoftware,Kicad,Pcbnew,8.0.7
=======
; DRILL file {KiCad 8.0.2} date 2024-12-18T00:09:26-0500
; FORMAT={-:-/ absolute / inch / decimal}
; #@! TF.CreationDate,2024-12-18T00:09:26-05:00
; #@! TF.GenerationSoftware,Kicad,Pcbnew,8.0.2
>>>>>>> 765677de5d3a4e6ade9669ce28fae239a28a82a0
; #@! TF.FileFunction,Plated,1,2,PTH
FMAT,2
INCH
; #@! TA.AperFunction,Plated,PTH,ComponentDrill
T1C0.0079
; #@! TA.AperFunction,Plated,PTH,ViaDrill
T2C0.0157
; #@! TA.AperFunction,Plated,PTH,ComponentDrill
T3C0.0236
; #@! TA.AperFunction,Plated,PTH,ComponentDrill
T4C0.0295
; #@! TA.AperFunction,Plated,PTH,ComponentDrill
T5C0.0461
%
G90
G05
T1
X4.1083Y-5.8435
X4.1083Y-5.8907
X4.1083Y-5.938
X4.1555Y-5.8435
X4.1555Y-5.8907
X4.1555Y-5.938
X4.2028Y-5.8435
X4.2028Y-5.8907
X4.2028Y-5.938
T2
X3.3573Y-5.6467
X3.377Y-5.6112
X3.4045Y-5.5797
X3.5278Y-4.9964
X3.5374Y-4.7815
X3.5463Y-5.8356
X3.5512Y-4.7087
X3.5748Y-5.8051
X3.5748Y-6.0509
X3.6043Y-5.8346
X3.611Y-6.2768
X3.6327Y-6.2439
X3.6653Y-6.2163
X3.6733Y-5.8751
X3.6919Y-6.3248
X3.7028Y-6.0667
X3.7044Y-6.106
X3.732Y-6.1986
X3.753Y-6.3415
X3.7785Y-4.8179
X3.7853Y-5.7208
X3.8032Y-5.7559
X3.8216Y-6.0499
X3.8229Y-6.0892
X3.8723Y-5.8336
X3.878Y-5.378
X3.8819Y-4.2116
X3.8917Y-5.9579
X3.8967Y-5.5443
X3.8976Y-6.0768
X3.8996Y-5.9193
X4.0329Y-6.3415
X4.079Y-5.7835
X4.2378Y-5.701
X4.278Y-5.7037
X4.2972Y-4.0758
X4.2992Y-4.8346
X4.3199Y-5.7037
X4.3453Y-5.8183
X4.3455Y-5.8577
X4.3467Y-5.779
X4.3593Y-5.7037
X4.4252Y-5.5429
X4.5616Y-4.6043
X4.5866Y-5.3839
X4.6988Y-6.2402
X4.7628Y-6.1358
X4.7737Y-4.1752
X4.7963Y-6.1102
X4.8716Y-6.1998
X4.9075Y-6.2175
X4.9774Y-5.9921
X4.9904Y-3.9998
X5.01Y-4.0896
X5.0366Y-5.2598
X5.0605Y-4.1319
X5.0709Y-4.5886
X5.0738Y-6.2175
X5.0999Y-4.1516
X5.1132Y-6.2175
X5.2608Y-6.1988
X5.3061Y-6.2018
X5.3417Y-5.9685
X5.4154Y-4.5226
X5.4414Y-4.2795
X5.4764Y-4.5404
X5.4879Y-4.3533
X5.5266Y-4.5404
X5.5295Y-4.3297
X5.5674Y-4.3081
X5.5689Y-5.5185
X5.6103Y-4.2647
X5.6486Y-6.2008
X5.6526Y-4.2431
X5.6957Y-4.9931
X5.7067Y-4.6014
X5.7364Y-5.9803
X5.9911Y-6.2067
X6.1301Y-5.8829
X6.2933Y-6.3071
X6.3612Y-6.1722
X6.4026Y-6.2067
X6.502Y-4.2057
X6.5238Y-5.9675
X6.7859Y-6.2062
X6.8602Y-5.3789
X6.8614Y-4.5984
X6.8957Y-4.2274
X6.9175Y-5.9705
X6.9183Y-4.1663
X6.9575Y-4.1447
X7.1762Y-6.2057
X7.248Y-4.8593
X7.2918Y-4.5205
X7.2943Y-4.2923
X7.312Y-5.9626
X7.3285Y-4.2707
X7.3349Y-4.5206
X7.3742Y-4.5187
X7.3829Y-5.5177
X7.403Y-4.336
X7.4136Y-4.5187
X7.4357Y-4.314
X7.4941Y-4.251
X7.5209Y-5.122
X7.6654Y-6.3071
X7.8002Y-4.1833
X7.811Y-6.1506
X7.8396Y-4.1831
X7.8697Y-4.0542
X7.9306Y-4.0093
X7.9757Y-4.079
X7.987Y-4.0273
X8.0226Y-4.1833
X8.0394Y-5.9872
X8.1309Y-4.0748
X8.1762Y-6.1919
X8.1998Y-6.2303
X8.2429Y-5.947
X8.2648Y-5.5185
X8.2923Y-6.1506
X8.3012Y-6.2431
X8.3858Y-4.8591
X8.3878Y-6.185
X8.4213Y-6.1486
X8.4283Y-4.8778
X8.4508Y-6.1191
X8.5207Y-6.0472
X8.5581Y-6.3209
X8.6545Y-4.3396
X8.6547Y-5.249
T3
G00X8.646Y-5.841
M15
G01X8.5987Y-5.841
M16
G05
G00X8.646Y-6.2836
M15
G01X8.5987Y-6.2836
M16
G05
G00X8.8034Y-5.841
M15
G01X8.7562Y-5.841
M16
G05
G00X8.8034Y-6.2836
M15
G01X8.7562Y-6.2836
M16
G05
T4
G00X7.8656Y-6.1467
M15
G01X7.8804Y-6.1467
M16
G05
G00X7.8656Y-6.2254
M15
G01X7.8804Y-6.2254
M16
G05
T5
G00X5.2106Y-5.9176
M15
G01X5.2106Y-5.982
M16
G05
G00X7.9665Y-5.9176
M15
G01X7.9665Y-5.982
M16
G05
M30
