M48
; DRILL file {KiCad (6.0.4)} date Mon Mar 18 00:53:07 2024
; FORMAT={-:-/ absolute / inch / decimal}
; #@! TF.CreationDate,2024-03-18T00:53:07-04:00
; #@! TF.GenerationSoftware,Kicad,Pcbnew,(6.0.4)
; #@! TF.FileFunction,Plated,1,2,PTH
FMAT,2
INCH
; #@! TA.AperFunction,Plated,PTH,ComponentDrill
T1C0.0118
; #@! TA.AperFunction,Plated,PTH,ViaDrill
T2C0.0157
; #@! TA.AperFunction,Plated,PTH,ComponentDrill
T3C0.0236
; #@! TA.AperFunction,Plated,PTH,ComponentDrill
T4C0.0461
%
G90
G05
T1
X5.3533Y-2.187
X5.3533Y-2.3091
X5.4321Y-2.3012
T2
X2.7234Y-2.8642
X2.7575Y-2.9988
X2.7894Y-2.8573
X2.81Y-1.56
X2.8169Y-3.0
X2.8189Y-2.3514
X2.8189Y-3.3907
X2.8346Y-3.3071
X2.8961Y-3.2451
X2.8968Y-3.2844
X2.9065Y-3.6722
X2.9144Y-3.4035
X2.9537Y-2.8474
X2.9547Y-3.0217
X2.9646Y-3.6703
X2.9724Y-3.5
X2.9728Y-3.2175
X2.9728Y-3.2569
X2.9728Y-3.2962
X2.9728Y-3.3361
X2.9744Y-3.4035
X3.0138Y-3.4045
X3.0187Y-3.3356
X3.037Y-2.8406
X3.0609Y-3.3968
X3.0689Y-1.9144
X3.0719Y-2.3337
X3.0846Y-3.2766
X3.0846Y-3.3159
X3.0896Y-3.5257
X3.1009Y-3.3868
X3.1015Y-2.8715
X3.1122Y-3.6536
X3.1275Y-2.9011
X3.1347Y-3.1568
X3.1536Y-2.9305
X3.1602Y-3.0443
X3.1672Y-2.9871
X3.1673Y-2.3514
X3.1683Y-1.9144
X3.1693Y-1.5709
X3.1875Y-3.0728
X3.1944Y-3.0156
X3.2047Y-3.1511
X3.2087Y-3.1998
X3.2116Y-3.4843
X3.2185Y-3.377
X3.2197Y-3.4163
X3.2206Y-3.0941
X3.2244Y-2.7203
X3.2323Y-2.7589
X3.2408Y-3.177
X3.2539Y-3.5049
X3.2586Y-2.7881
X3.2657Y-3.6536
X3.2874Y-2.815
X3.2963Y-3.3297
X3.3268Y-2.0787
X3.3376Y-2.1772
X3.3406Y-2.8612
X3.375Y-2.3229
X3.4154Y-3.6536
X3.4429Y-3.561
X3.4754Y-2.3219
X3.5217Y-1.3937
X3.565Y-3.5788
X3.5709Y-3.6536
X3.6329Y-2.315
X3.6526Y-2.1732
X3.6742Y-3.5108
X3.6811Y-2.0758
X3.6949Y-2.1762
X3.6978Y-3.5428
X3.732Y-3.0177
X3.7321Y-3.562
X3.7651Y-3.5835
X3.7713Y-3.0177
X3.7894Y-2.6575
X3.7994Y-3.6027
X3.8107Y-3.0177
X3.819Y-3.6368
X3.8399Y-2.2037
X3.8499Y-3.0143
X3.8514Y-1.5728
X3.8524Y-2.3632
X3.8543Y-1.9094
X3.8615Y-3.6553
X3.8892Y-3.0124
X3.9065Y-3.6762
X3.9104Y-2.0098
X3.9173Y-2.2825
X3.9301Y-3.0108
X3.9537Y-2.3396
X3.9703Y-3.011
X3.9882Y-3.3415
X4.0167Y-3.0079
X4.0374Y-3.3809
X4.0787Y-1.2549
X4.1289Y-3.3402
X4.18Y-3.0423
X4.2461Y-2.2362
X4.252Y-2.003
X4.2707Y-3.5311
X4.2974Y-3.56
X4.3012Y-1.5758
X4.3012Y-1.9124
X4.3051Y-3.0167
X4.313Y-2.3553
X4.332Y-3.5788
X4.3365Y-3.0404
X4.3377Y-3.3209
X4.3583Y-2.7559
X4.3588Y-2.7151
X4.3671Y-3.0157
X4.3689Y-3.5965
X4.3872Y-2.7826
X4.3969Y-3.0414
X4.4075Y-3.6142
X4.4118Y-2.1209
X4.4232Y-2.7992
X4.4262Y-3.0148
X4.4455Y-3.6319
X4.4594Y-3.0359
X4.4774Y-2.1742
X4.4844Y-3.6427
X4.4931Y-3.0157
X4.4976Y-2.8602
X4.5118Y-2.2766
X4.5768Y-3.5138
X4.5846Y-2.2756
X4.6348Y-1.3917
X4.7559Y-3.4567
X4.7702Y-2.2731
X4.7835Y-2.1752
X4.8268Y-2.1762
X4.9094Y-2.1181
X4.9272Y-2.6772
X4.9478Y-3.543
X4.9862Y-1.5679
X4.9872Y-1.9203
X4.9872Y-2.3563
X5.0334Y-2.0088
X5.0433Y-2.2717
X5.0482Y-3.3169
X5.0886Y-2.3474
X5.1565Y-3.0571
X5.1713Y-2.9538
X5.185Y-3.0906
X5.2343Y-3.248
X5.247Y-2.9193
X5.254Y-3.4567
X5.2628Y-3.5607
X5.3524Y-1.2077
X5.3691Y-3.4282
X5.3839Y-2.9577
X5.4016Y-2.4793
X5.4958Y-2.5093
X5.502Y-2.4252
X5.5187Y-2.9562
X5.5394Y-2.5079
X5.5414Y-3.4567
X5.546Y-1.2303
X5.562Y-2.4292
X5.565Y-1.2648
X5.6014Y-2.8582
X5.6053Y-2.6112
X5.6398Y-3.2146
X5.6407Y-2.8602
X5.6604Y-3.5784
X5.6801Y-2.8603
X5.7133Y-1.286
X5.7471Y-1.2657
X5.7756Y-2.3681
X5.8326Y-2.373
X5.8707Y-3.4567
X6.0059Y-3.1978
X6.0285Y-2.3474
X6.0364Y-3.375
X6.0502Y-3.5965
X6.0731Y-2.25
X6.0758Y-1.9754
X6.126Y-1.9144
X6.127Y-2.3514
X6.128Y-1.5679
X6.1831Y-2.7539
X6.1831Y-2.6998
X6.2098Y-2.7828
X6.2175Y-2.1181
X6.237Y-2.8112
X6.2894Y-2.1742
X6.3022Y-2.8602
X6.3287Y-2.1752
X6.3337Y-2.2717
X6.3376Y-3.4567
X6.4232Y-3.6142
X6.4243Y-2.2707
X6.4705Y-1.3927
X6.5581Y-3.0472
X6.5877Y-3.0161
X6.5915Y-2.2746
X6.6152Y-2.1762
X6.6168Y-3.0425
X6.6358Y-3.5246
X6.6457Y-3.0157
X6.6545Y-2.1752
X6.6706Y-3.543
X6.6744Y-3.0426
X6.7032Y-3.0157
X6.7058Y-3.5607
X6.7318Y-3.0427
X6.7362Y-2.1182
X6.7409Y-3.5784
X6.7431Y-2.6486
X6.7758Y-3.5965
X6.8031Y-3.185
X6.8091Y-2.3642
X6.81Y-1.5699
X6.811Y-3.6142
X6.811Y-1.9198
X6.8435Y-3.6378
X6.8622Y-2.0187
X6.8681Y-2.2766
X6.9084Y-2.3642
X7.0349Y-1.2406
X7.0384Y-3.4213
X7.1683Y-3.0472
X7.207Y-2.25
X7.2126Y-2.001
X7.2579Y-1.9154
X7.2589Y-1.5659
X7.2608Y-2.3504
X7.2657Y-3.3386
X7.3169Y-2.7076
X7.3283Y-2.7453
X7.3555Y-2.7766
X7.3622Y-2.1181
X7.3838Y-2.8121
X7.4203Y-2.1752
X7.436Y-2.8583
X7.4675Y-2.3169
X7.5Y-3.373
X7.5011Y-3.4173
X7.5011Y-3.4567
X7.5061Y-3.3318
X7.564Y-2.3189
X7.6102Y-1.3937
X7.7264Y-2.313
X7.7303Y-3.5679
X7.751Y-2.1762
X7.7914Y-2.1722
X7.8701Y-2.1181
X7.8789Y-2.6447
X7.9429Y-1.5758
X7.9429Y-2.3543
X7.9449Y-1.9124
X7.9931Y-2.0138
X8.0032Y-2.2795
X8.0128Y-3.5689
X8.0482Y-2.3543
T3
G00X7.9112Y-3.0051
M15
G01X7.8679Y-3.0051
M16
G05
G00X7.9112Y-3.3453
M15
G01X7.8679Y-3.3453
M16
G05
G00X8.0549Y-3.0051
M15
G01X8.0234Y-3.0051
M16
G05
G00X8.0549Y-3.3453
M15
G01X8.0234Y-3.3453
M16
G05
T4
G00X3.4646Y-3.3994
M15
G01X3.4646Y-3.3349
M16
G05
G00X4.5266Y-2.6646
M15
G01X4.5266Y-2.7291
M16
G05
G00X5.4941Y-3.3994
M15
G01X5.4941Y-3.3349
M16
G05
G00X5.936Y-3.3994
M15
G01X5.936Y-3.3349
M16
G05
G00X6.5561Y-2.6646
M15
G01X6.5561Y-2.7291
M16
G05
G00X7.9656Y-3.3994
M15
G01X7.9656Y-3.3349
M16
G05
T0
M30
