%TF.GenerationSoftware,KiCad,Pcbnew,8.0.7*%
%TF.CreationDate,2024-12-16T01:20:26-05:00*%
%TF.ProjectId,Scoreboard,53636f72-6562-46f6-9172-642e6b696361,rev?*%
%TF.SameCoordinates,Original*%
%TF.FileFunction,Soldermask,Top*%
%TF.FilePolarity,Negative*%
%FSLAX46Y46*%
G04 Gerber Fmt 4.6, Leading zero omitted, Abs format (unit mm)*
G04 Created by KiCad (PCBNEW 8.0.7) date 2024-12-16 01:20:26*
%MOMM*%
%LPD*%
G01*
G04 APERTURE LIST*
G04 Aperture macros list*
%AMRoundRect*
0 Rectangle with rounded corners*
0 $1 Rounding radius*
0 $2 $3 $4 $5 $6 $7 $8 $9 X,Y pos of 4 corners*
0 Add a 4 corners polygon primitive as box body*
4,1,4,$2,$3,$4,$5,$6,$7,$8,$9,$2,$3,0*
0 Add four circle primitives for the rounded corners*
1,1,$1+$1,$2,$3*
1,1,$1+$1,$4,$5*
1,1,$1+$1,$6,$7*
1,1,$1+$1,$8,$9*
0 Add four rect primitives between the rounded corners*
20,1,$1+$1,$2,$3,$4,$5,0*
20,1,$1+$1,$4,$5,$6,$7,0*
20,1,$1+$1,$6,$7,$8,$9,0*
20,1,$1+$1,$8,$9,$2,$3,0*%
G04 Aperture macros list end*
%ADD10R,0.750000X0.710001*%
%ADD11R,0.710001X0.750000*%
%ADD12RoundRect,0.200000X-0.200000X-0.275000X0.200000X-0.275000X0.200000X0.275000X-0.200000X0.275000X0*%
%ADD13RoundRect,0.200000X0.200000X0.275000X-0.200000X0.275000X-0.200000X-0.275000X0.200000X-0.275000X0*%
%ADD14R,0.650000X1.050000*%
%ADD15RoundRect,0.102000X0.575000X-0.300000X0.575000X0.300000X-0.575000X0.300000X-0.575000X-0.300000X0*%
%ADD16RoundRect,0.102000X0.575000X-0.150000X0.575000X0.150000X-0.575000X0.150000X-0.575000X-0.150000X0*%
%ADD17O,2.200000X1.000000*%
%ADD18RoundRect,0.102000X0.850000X-0.300000X0.850000X0.300000X-0.850000X0.300000X-0.850000X-0.300000X0*%
%ADD19RoundRect,0.102000X0.950000X-0.300000X0.950000X0.300000X-0.950000X0.300000X-0.950000X-0.300000X0*%
%ADD20RoundRect,0.200000X0.275000X-0.200000X0.275000X0.200000X-0.275000X0.200000X-0.275000X-0.200000X0*%
%ADD21RoundRect,0.225000X-0.250000X0.225000X-0.250000X-0.225000X0.250000X-0.225000X0.250000X0.225000X0*%
%ADD22C,1.000000*%
%ADD23RoundRect,0.225000X0.225000X0.250000X-0.225000X0.250000X-0.225000X-0.250000X0.225000X-0.250000X0*%
%ADD24RoundRect,0.102000X0.900000X-0.900000X0.900000X0.900000X-0.900000X0.900000X-0.900000X-0.900000X0*%
%ADD25RoundRect,0.150000X-0.512500X-0.150000X0.512500X-0.150000X0.512500X0.150000X-0.512500X0.150000X0*%
%ADD26C,0.704000*%
%ADD27RoundRect,0.218750X0.218750X0.256250X-0.218750X0.256250X-0.218750X-0.256250X0.218750X-0.256250X0*%
%ADD28RoundRect,0.150000X0.587500X0.150000X-0.587500X0.150000X-0.587500X-0.150000X0.587500X-0.150000X0*%
%ADD29RoundRect,0.225000X-0.225000X-0.250000X0.225000X-0.250000X0.225000X0.250000X-0.225000X0.250000X0*%
%ADD30RoundRect,0.225000X0.250000X-0.225000X0.250000X0.225000X-0.250000X0.225000X-0.250000X-0.225000X0*%
%ADD31RoundRect,0.150000X-0.587500X-0.150000X0.587500X-0.150000X0.587500X0.150000X-0.587500X0.150000X0*%
%ADD32C,2.374900*%
%ADD33C,0.991000*%
%ADD34O,1.964000X3.724000*%
%ADD35RoundRect,0.250000X0.625000X-0.350000X0.625000X0.350000X-0.625000X0.350000X-0.625000X-0.350000X0*%
%ADD36O,1.750000X1.200000*%
G04 APERTURE END LIST*
D10*
%TO.C,D117*%
X116440000Y-104795000D03*
X116440000Y-105805000D03*
X118440000Y-105805000D03*
X118440000Y-104795000D03*
%TD*%
%TO.C,D157*%
X173705000Y-112400000D03*
X173705000Y-111390000D03*
X171705000Y-111390000D03*
X171705000Y-112400000D03*
%TD*%
%TO.C,D89*%
X220395000Y-104790000D03*
X220395000Y-105800000D03*
X222395000Y-105800000D03*
X222395000Y-104790000D03*
%TD*%
%TO.C,D119*%
X116440000Y-114695000D03*
X116440000Y-115705000D03*
X118440000Y-115705000D03*
X118440000Y-114695000D03*
%TD*%
D11*
%TO.C,D139*%
X139095000Y-102950000D03*
X140105000Y-102950000D03*
X140105000Y-100950000D03*
X139095000Y-100950000D03*
%TD*%
D12*
%TO.C,R10*%
X210275000Y-158850000D03*
X211925000Y-158850000D03*
%TD*%
D13*
%TO.C,R2*%
X215100000Y-153150000D03*
X213450000Y-153150000D03*
%TD*%
D10*
%TO.C,D6*%
X89655000Y-125700000D03*
X89655000Y-124690000D03*
X87655000Y-124690000D03*
X87655000Y-125700000D03*
%TD*%
%TO.C,D43*%
X173705000Y-115700000D03*
X173705000Y-114690000D03*
X171705000Y-114690000D03*
X171705000Y-115700000D03*
%TD*%
%TO.C,D69*%
X202505000Y-105800000D03*
X202505000Y-104790000D03*
X200505000Y-104790000D03*
X200505000Y-105800000D03*
%TD*%
D11*
%TO.C,D24*%
X164985000Y-158400000D03*
X163975000Y-158400000D03*
X163975000Y-160400000D03*
X164985000Y-160400000D03*
%TD*%
D10*
%TO.C,D4*%
X89655000Y-115700000D03*
X89655000Y-114690000D03*
X87655000Y-114690000D03*
X87655000Y-115700000D03*
%TD*%
%TO.C,D151*%
X145245000Y-134590000D03*
X145245000Y-135600000D03*
X147245000Y-135600000D03*
X147245000Y-134590000D03*
%TD*%
D11*
%TO.C,D79*%
X205360000Y-140745000D03*
X204350000Y-140745000D03*
X204350000Y-142745000D03*
X205360000Y-142745000D03*
%TD*%
%TO.C,D106*%
X114600000Y-120850000D03*
X113590000Y-120850000D03*
X113590000Y-122850000D03*
X114600000Y-122850000D03*
%TD*%
D10*
%TO.C,D33*%
X162805000Y-117990000D03*
X162805000Y-119000000D03*
X164805000Y-119000000D03*
X164805000Y-117990000D03*
%TD*%
D11*
%TO.C,D114*%
X113595000Y-102950000D03*
X114605000Y-102950000D03*
X114605000Y-100950000D03*
X113595000Y-100950000D03*
%TD*%
%TO.C,D12*%
X134985000Y-158400000D03*
X133975000Y-158400000D03*
X133975000Y-160400000D03*
X134985000Y-160400000D03*
%TD*%
D10*
%TO.C,D152*%
X145245000Y-137890000D03*
X145245000Y-138900000D03*
X147245000Y-138900000D03*
X147245000Y-137890000D03*
%TD*%
D11*
%TO.C,D181*%
X135800000Y-122835000D03*
X136810000Y-122835000D03*
X136810000Y-120835000D03*
X135800000Y-120835000D03*
%TD*%
D10*
%TO.C,D130*%
X127355000Y-129000000D03*
X127355000Y-127990000D03*
X125355000Y-127990000D03*
X125355000Y-129000000D03*
%TD*%
%TO.C,D120*%
X116440000Y-117995000D03*
X116440000Y-119005000D03*
X118440000Y-119005000D03*
X118440000Y-117995000D03*
%TD*%
%TO.C,D95*%
X220405000Y-134590000D03*
X220405000Y-135600000D03*
X222405000Y-135600000D03*
X222405000Y-134590000D03*
%TD*%
%TO.C,D30*%
X162805000Y-104790000D03*
X162805000Y-105800000D03*
X164805000Y-105800000D03*
X164805000Y-104790000D03*
%TD*%
%TO.C,D47*%
X173705000Y-135600000D03*
X173705000Y-134590000D03*
X171705000Y-134590000D03*
X171705000Y-135600000D03*
%TD*%
D11*
%TO.C,D135*%
X130210000Y-140745000D03*
X129200000Y-140745000D03*
X129200000Y-142745000D03*
X130210000Y-142745000D03*
%TD*%
D10*
%TO.C,D154*%
X89655000Y-132300000D03*
X89655000Y-131290000D03*
X87655000Y-131290000D03*
X87655000Y-132300000D03*
%TD*%
%TO.C,D127*%
X127355000Y-115700000D03*
X127355000Y-114690000D03*
X125355000Y-114690000D03*
X125355000Y-115700000D03*
%TD*%
D11*
%TO.C,D83*%
X214255000Y-102940000D03*
X215265000Y-102940000D03*
X215265000Y-100940000D03*
X214255000Y-100940000D03*
%TD*%
D14*
%TO.C,SW3*%
X158375000Y-153200000D03*
X158375000Y-149050000D03*
X160525000Y-153200000D03*
X160525000Y-149050000D03*
%TD*%
D12*
%TO.C,R4*%
X214625000Y-148225000D03*
X216275000Y-148225000D03*
%TD*%
D10*
%TO.C,D70*%
X202505000Y-109100000D03*
X202505000Y-108090000D03*
X200505000Y-108090000D03*
X200505000Y-109100000D03*
%TD*%
D11*
%TO.C,D23*%
X164985000Y-148400000D03*
X163975000Y-148400000D03*
X163975000Y-150400000D03*
X164985000Y-150400000D03*
%TD*%
D10*
%TO.C,D7*%
X89655000Y-129000000D03*
X89655000Y-127990000D03*
X87655000Y-127990000D03*
X87655000Y-129000000D03*
%TD*%
%TO.C,D92*%
X220395000Y-117990000D03*
X220395000Y-119000000D03*
X222395000Y-119000000D03*
X222395000Y-117990000D03*
%TD*%
D11*
%TO.C,D168*%
X211960000Y-140745000D03*
X210950000Y-140745000D03*
X210950000Y-142745000D03*
X211960000Y-142745000D03*
%TD*%
D10*
%TO.C,D147*%
X145255000Y-114690000D03*
X145255000Y-115700000D03*
X147255000Y-115700000D03*
X147255000Y-114690000D03*
%TD*%
D15*
%TO.C,J2*%
X217882500Y-157182500D03*
X217882500Y-156382500D03*
D16*
X217882500Y-155232500D03*
X217882500Y-154232500D03*
X217882500Y-153732500D03*
X217882500Y-152732500D03*
D15*
X217882500Y-150782500D03*
X217882500Y-151582500D03*
D16*
X217882500Y-152232500D03*
X217882500Y-153232500D03*
X217882500Y-154732500D03*
X217882500Y-155732500D03*
D17*
X219007500Y-159602500D03*
D18*
X218957500Y-158932500D03*
D19*
X219007500Y-149032500D03*
D17*
X219007500Y-148362500D03*
X223007500Y-159602500D03*
D19*
X223007500Y-158977500D03*
X223007500Y-149007500D03*
D17*
X223007500Y-148362500D03*
%TD*%
D11*
%TO.C,D25*%
X163975000Y-155400000D03*
X164985000Y-155400000D03*
X164985000Y-153400000D03*
X163975000Y-153400000D03*
%TD*%
%TO.C,D173*%
X106995000Y-102950000D03*
X108005000Y-102950000D03*
X108005000Y-100950000D03*
X106995000Y-100950000D03*
%TD*%
%TO.C,D16*%
X143975000Y-155400000D03*
X144985000Y-155400000D03*
X144985000Y-153400000D03*
X143975000Y-153400000D03*
%TD*%
D10*
%TO.C,D36*%
X162800000Y-134595000D03*
X162800000Y-135605000D03*
X164800000Y-135605000D03*
X164800000Y-134595000D03*
%TD*%
D11*
%TO.C,D40*%
X185005000Y-158400000D03*
X183995000Y-158400000D03*
X183995000Y-160400000D03*
X185005000Y-160400000D03*
%TD*%
%TO.C,D174*%
X108000000Y-120850000D03*
X106990000Y-120850000D03*
X106990000Y-122850000D03*
X108000000Y-122850000D03*
%TD*%
D10*
%TO.C,D34*%
X162800000Y-124695000D03*
X162800000Y-125705000D03*
X164800000Y-125705000D03*
X164800000Y-124695000D03*
%TD*%
%TO.C,D44*%
X173705000Y-119000000D03*
X173705000Y-117990000D03*
X171705000Y-117990000D03*
X171705000Y-119000000D03*
%TD*%
D11*
%TO.C,D19*%
X154985000Y-158400000D03*
X153975000Y-158400000D03*
X153975000Y-160400000D03*
X154985000Y-160400000D03*
%TD*%
D20*
%TO.C,R1*%
X216200000Y-159100000D03*
X216200000Y-157450000D03*
%TD*%
D10*
%TO.C,D156*%
X162800000Y-131295000D03*
X162800000Y-132305000D03*
X164800000Y-132305000D03*
X164800000Y-131295000D03*
%TD*%
D14*
%TO.C,SW1*%
X195475000Y-152950000D03*
X195475000Y-148800000D03*
X197625000Y-152950000D03*
X197625000Y-148800000D03*
%TD*%
D12*
%TO.C,R8*%
X207100000Y-153225000D03*
X208750000Y-153225000D03*
%TD*%
D10*
%TO.C,D13*%
X196025000Y-98920000D03*
X196025000Y-99930000D03*
X198025000Y-99930000D03*
X198025000Y-98920000D03*
%TD*%
%TO.C,D65*%
X191605000Y-124690000D03*
X191605000Y-125700000D03*
X193605000Y-125700000D03*
X193605000Y-124690000D03*
%TD*%
D11*
%TO.C,D87*%
X217550000Y-122845000D03*
X218560000Y-122845000D03*
X218560000Y-120845000D03*
X217550000Y-120845000D03*
%TD*%
%TO.C,D49*%
X175550000Y-102945000D03*
X176560000Y-102945000D03*
X176560000Y-100945000D03*
X175550000Y-100945000D03*
%TD*%
%TO.C,D38*%
X185005000Y-148400000D03*
X183995000Y-148400000D03*
X183995000Y-150400000D03*
X185005000Y-150400000D03*
%TD*%
D10*
%TO.C,D41*%
X173705000Y-105800000D03*
X173705000Y-104790000D03*
X171705000Y-104790000D03*
X171705000Y-105800000D03*
%TD*%
%TO.C,D31*%
X162805000Y-108090000D03*
X162805000Y-109100000D03*
X164805000Y-109100000D03*
X164805000Y-108090000D03*
%TD*%
D12*
%TO.C,R9*%
X206325000Y-160375000D03*
X207975000Y-160375000D03*
%TD*%
D10*
%TO.C,D100*%
X98550000Y-119005000D03*
X98550000Y-117995000D03*
X96550000Y-117995000D03*
X96550000Y-119005000D03*
%TD*%
%TO.C,D64*%
X191605000Y-117990000D03*
X191605000Y-119000000D03*
X193605000Y-119000000D03*
X193605000Y-117990000D03*
%TD*%
D21*
%TO.C,C5*%
X105350000Y-158950000D03*
X105350000Y-160500000D03*
%TD*%
D22*
%TO.C,REF\u002A\u002A*%
X92000000Y-160975000D03*
%TD*%
D11*
%TO.C,D77*%
X204355000Y-102940000D03*
X205365000Y-102940000D03*
X205365000Y-100940000D03*
X204355000Y-100940000D03*
%TD*%
%TO.C,D60*%
X189760000Y-140745000D03*
X188750000Y-140745000D03*
X188750000Y-142745000D03*
X189760000Y-142745000D03*
%TD*%
D10*
%TO.C,D5*%
X89655000Y-119000000D03*
X89655000Y-117990000D03*
X87655000Y-117990000D03*
X87655000Y-119000000D03*
%TD*%
D13*
%TO.C,R16*%
X102225000Y-154900000D03*
X100575000Y-154900000D03*
%TD*%
D10*
%TO.C,D184*%
X145245000Y-131290000D03*
X145245000Y-132300000D03*
X147245000Y-132300000D03*
X147245000Y-131290000D03*
%TD*%
D11*
%TO.C,D15*%
X144985000Y-158400000D03*
X143975000Y-158400000D03*
X143975000Y-160400000D03*
X144985000Y-160400000D03*
%TD*%
%TO.C,D21*%
X158945000Y-112925000D03*
X159955000Y-112925000D03*
X159955000Y-110925000D03*
X158945000Y-110925000D03*
%TD*%
D12*
%TO.C,R11*%
X94575000Y-160950000D03*
X96225000Y-160950000D03*
%TD*%
D11*
%TO.C,D82*%
X208660000Y-140745000D03*
X207650000Y-140745000D03*
X207650000Y-142745000D03*
X208660000Y-142745000D03*
%TD*%
%TO.C,D59*%
X176555000Y-120850000D03*
X175545000Y-120850000D03*
X175545000Y-122850000D03*
X176555000Y-122850000D03*
%TD*%
D10*
%TO.C,D153*%
X89655000Y-112400000D03*
X89655000Y-111390000D03*
X87655000Y-111390000D03*
X87655000Y-112400000D03*
%TD*%
D11*
%TO.C,D115*%
X101400000Y-120850000D03*
X100390000Y-120850000D03*
X100390000Y-122850000D03*
X101400000Y-122850000D03*
%TD*%
D10*
%TO.C,D170*%
X220405000Y-131290000D03*
X220405000Y-132300000D03*
X222405000Y-132300000D03*
X222405000Y-131290000D03*
%TD*%
D11*
%TO.C,D112*%
X104700000Y-120850000D03*
X103690000Y-120850000D03*
X103690000Y-122850000D03*
X104700000Y-122850000D03*
%TD*%
%TO.C,D108*%
X103695000Y-102950000D03*
X104705000Y-102950000D03*
X104705000Y-100950000D03*
X103695000Y-100950000D03*
%TD*%
%TO.C,D11*%
X133975000Y-155400000D03*
X134985000Y-155400000D03*
X134985000Y-153400000D03*
X133975000Y-153400000D03*
%TD*%
%TO.C,D159*%
X182150000Y-102945000D03*
X183160000Y-102945000D03*
X183160000Y-100945000D03*
X182150000Y-100945000D03*
%TD*%
%TO.C,D26*%
X158945000Y-132800000D03*
X159955000Y-132800000D03*
X159955000Y-130800000D03*
X158945000Y-130800000D03*
%TD*%
D22*
%TO.C,REF\u002A\u002A*%
X85850000Y-148150000D03*
%TD*%
D10*
%TO.C,D178*%
X127355000Y-112400000D03*
X127355000Y-111390000D03*
X125355000Y-111390000D03*
X125355000Y-112400000D03*
%TD*%
D20*
%TO.C,R6*%
X205550000Y-151300000D03*
X205550000Y-149650000D03*
%TD*%
D10*
%TO.C,D67*%
X191605000Y-134590000D03*
X191605000Y-135600000D03*
X193605000Y-135600000D03*
X193605000Y-134590000D03*
%TD*%
D11*
%TO.C,D142*%
X142395000Y-102950000D03*
X143405000Y-102950000D03*
X143405000Y-100950000D03*
X142395000Y-100950000D03*
%TD*%
%TO.C,D113*%
X111305000Y-140740000D03*
X110295000Y-140740000D03*
X110295000Y-142740000D03*
X111305000Y-142740000D03*
%TD*%
D10*
%TO.C,D42*%
X173705000Y-109100000D03*
X173705000Y-108090000D03*
X171705000Y-108090000D03*
X171705000Y-109100000D03*
%TD*%
D11*
%TO.C,D50*%
X189755000Y-120850000D03*
X188745000Y-120850000D03*
X188745000Y-122850000D03*
X189755000Y-122850000D03*
%TD*%
D10*
%TO.C,D123*%
X116450000Y-134595000D03*
X116450000Y-135605000D03*
X118450000Y-135605000D03*
X118450000Y-134595000D03*
%TD*%
D23*
%TO.C,C1*%
X207150000Y-148200000D03*
X205600000Y-148200000D03*
%TD*%
D11*
%TO.C,D167*%
X210950000Y-122845000D03*
X211960000Y-122845000D03*
X211960000Y-120845000D03*
X210950000Y-120845000D03*
%TD*%
D13*
%TO.C,R15*%
X102225000Y-156400000D03*
X100575000Y-156400000D03*
%TD*%
D10*
%TO.C,D103*%
X98550000Y-135605000D03*
X98550000Y-134595000D03*
X96550000Y-134595000D03*
X96550000Y-135605000D03*
%TD*%
D11*
%TO.C,D51*%
X176560000Y-140745000D03*
X175550000Y-140745000D03*
X175550000Y-142745000D03*
X176560000Y-142745000D03*
%TD*%
%TO.C,D182*%
X136810000Y-140745000D03*
X135800000Y-140745000D03*
X135800000Y-142745000D03*
X136810000Y-142745000D03*
%TD*%
D10*
%TO.C,D126*%
X127355000Y-109100000D03*
X127355000Y-108090000D03*
X125355000Y-108090000D03*
X125355000Y-109100000D03*
%TD*%
%TO.C,D8*%
X89655000Y-135600000D03*
X89655000Y-134590000D03*
X87655000Y-134590000D03*
X87655000Y-135600000D03*
%TD*%
D11*
%TO.C,D10*%
X134985000Y-148400000D03*
X133975000Y-148400000D03*
X133975000Y-150400000D03*
X134985000Y-150400000D03*
%TD*%
D10*
%TO.C,D124*%
X116450000Y-137895000D03*
X116450000Y-138905000D03*
X118450000Y-138905000D03*
X118450000Y-137895000D03*
%TD*%
%TO.C,D96*%
X220405000Y-137890000D03*
X220405000Y-138900000D03*
X222405000Y-138900000D03*
X222405000Y-137890000D03*
%TD*%
D24*
%TO.C,BZ1*%
X104175000Y-150825000D03*
X110325000Y-150825000D03*
X104175000Y-156975000D03*
X110325000Y-156975000D03*
%TD*%
D10*
%TO.C,D102*%
X98550000Y-129005000D03*
X98550000Y-127995000D03*
X96550000Y-127995000D03*
X96550000Y-129005000D03*
%TD*%
D11*
%TO.C,D175*%
X108005000Y-140740000D03*
X106995000Y-140740000D03*
X106995000Y-142740000D03*
X108005000Y-142740000D03*
%TD*%
D10*
%TO.C,D37*%
X162800000Y-137895000D03*
X162800000Y-138905000D03*
X164800000Y-138905000D03*
X164800000Y-137895000D03*
%TD*%
D12*
%TO.C,R7*%
X207000000Y-155075000D03*
X208650000Y-155075000D03*
%TD*%
D13*
%TO.C,R18*%
X102225000Y-150400000D03*
X100575000Y-150400000D03*
%TD*%
D10*
%TO.C,D146*%
X145255000Y-108090000D03*
X145255000Y-109100000D03*
X147255000Y-109100000D03*
X147255000Y-108090000D03*
%TD*%
D11*
%TO.C,D54*%
X179860000Y-140745000D03*
X178850000Y-140745000D03*
X178850000Y-142745000D03*
X179860000Y-142745000D03*
%TD*%
%TO.C,D134*%
X129200000Y-122835000D03*
X130210000Y-122835000D03*
X130210000Y-120835000D03*
X129200000Y-120835000D03*
%TD*%
D20*
%TO.C,R5*%
X205550000Y-154300000D03*
X205550000Y-152650000D03*
%TD*%
D10*
%TO.C,D131*%
X127355000Y-135600000D03*
X127355000Y-134590000D03*
X125355000Y-134590000D03*
X125355000Y-135600000D03*
%TD*%
D22*
%TO.C,REF\u002A\u002A*%
X204825000Y-160125000D03*
%TD*%
D11*
%TO.C,D55*%
X185450000Y-102945000D03*
X186460000Y-102945000D03*
X186460000Y-100945000D03*
X185450000Y-100945000D03*
%TD*%
D10*
%TO.C,D94*%
X220405000Y-127990000D03*
X220405000Y-129000000D03*
X222405000Y-129000000D03*
X222405000Y-127990000D03*
%TD*%
%TO.C,D75*%
X202505000Y-135600000D03*
X202505000Y-134590000D03*
X200505000Y-134590000D03*
X200505000Y-135600000D03*
%TD*%
%TO.C,D145*%
X145255000Y-104790000D03*
X145255000Y-105800000D03*
X147255000Y-105800000D03*
X147255000Y-104790000D03*
%TD*%
%TO.C,D125*%
X127355000Y-105800000D03*
X127355000Y-104790000D03*
X125355000Y-104790000D03*
X125355000Y-105800000D03*
%TD*%
D11*
%TO.C,D166*%
X210955000Y-102940000D03*
X211965000Y-102940000D03*
X211965000Y-100940000D03*
X210955000Y-100940000D03*
%TD*%
%TO.C,D56*%
X179855000Y-120850000D03*
X178845000Y-120850000D03*
X178845000Y-122850000D03*
X179855000Y-122850000D03*
%TD*%
D10*
%TO.C,D66*%
X191605000Y-127990000D03*
X191605000Y-129000000D03*
X193605000Y-129000000D03*
X193605000Y-127990000D03*
%TD*%
D11*
%TO.C,D137*%
X132500000Y-122835000D03*
X133510000Y-122835000D03*
X133510000Y-120835000D03*
X132500000Y-120835000D03*
%TD*%
D12*
%TO.C,R3*%
X208550000Y-148200000D03*
X210200000Y-148200000D03*
%TD*%
D13*
%TO.C,R12*%
X210975000Y-160375000D03*
X209325000Y-160375000D03*
%TD*%
D10*
%TO.C,D104*%
X98550000Y-138905000D03*
X98550000Y-137895000D03*
X96550000Y-137895000D03*
X96550000Y-138905000D03*
%TD*%
%TO.C,D93*%
X220405000Y-124690000D03*
X220405000Y-125700000D03*
X222405000Y-125700000D03*
X222405000Y-124690000D03*
%TD*%
D22*
%TO.C,REF\u002A\u002A*%
X107275000Y-148875000D03*
%TD*%
D11*
%TO.C,D29*%
X173975000Y-155400000D03*
X174985000Y-155400000D03*
X174985000Y-153400000D03*
X173975000Y-153400000D03*
%TD*%
%TO.C,D58*%
X188750000Y-102945000D03*
X189760000Y-102945000D03*
X189760000Y-100945000D03*
X188750000Y-100945000D03*
%TD*%
D10*
%TO.C,D3*%
X89655000Y-109100000D03*
X89655000Y-108090000D03*
X87655000Y-108090000D03*
X87655000Y-109100000D03*
%TD*%
D11*
%TO.C,D136*%
X132495000Y-102950000D03*
X133505000Y-102950000D03*
X133505000Y-100950000D03*
X132495000Y-100950000D03*
%TD*%
D25*
%TO.C,J3*%
X213275000Y-149725000D03*
X213275000Y-150675000D03*
X213275000Y-151625000D03*
X215550000Y-151625000D03*
X215550000Y-150675000D03*
X215550000Y-149725000D03*
%TD*%
D26*
%TO.C,U1*%
X92970000Y-159451000D03*
X93970000Y-159451000D03*
X94970000Y-159451000D03*
X95970000Y-159451000D03*
X96970000Y-159451000D03*
X93970000Y-158451000D03*
X94970000Y-158451000D03*
X95970000Y-158451000D03*
X97970000Y-155451000D03*
X97970000Y-154451000D03*
X97970000Y-153451000D03*
X97970000Y-152451000D03*
X97970000Y-151451000D03*
X97970000Y-150451000D03*
X95970000Y-150451000D03*
X94970000Y-150451000D03*
X93970000Y-150451000D03*
X92970000Y-150451000D03*
X95970000Y-151451000D03*
X94970000Y-151451000D03*
X93970000Y-151451000D03*
X92970000Y-151451000D03*
X92970000Y-152451000D03*
X92970000Y-153451000D03*
X94970000Y-154451000D03*
X95970000Y-154451000D03*
X94970000Y-155451000D03*
X95970000Y-155451000D03*
%TD*%
D10*
%TO.C,D132*%
X127355000Y-138900000D03*
X127355000Y-137890000D03*
X125355000Y-137890000D03*
X125355000Y-138900000D03*
%TD*%
%TO.C,D17*%
X158450000Y-98920000D03*
X158450000Y-99930000D03*
X160450000Y-99930000D03*
X160450000Y-98920000D03*
%TD*%
%TO.C,D61*%
X191605000Y-104790000D03*
X191605000Y-105800000D03*
X193605000Y-105800000D03*
X193605000Y-104790000D03*
%TD*%
D27*
%TO.C,D1*%
X213175000Y-148200000D03*
X211600000Y-148200000D03*
%TD*%
D11*
%TO.C,D53*%
X186455000Y-120850000D03*
X185445000Y-120850000D03*
X185445000Y-122850000D03*
X186455000Y-122850000D03*
%TD*%
D28*
%TO.C,Q3*%
X212187500Y-157350000D03*
X212187500Y-155450000D03*
X210312500Y-156400000D03*
%TD*%
D10*
%TO.C,D177*%
X116450000Y-131295000D03*
X116450000Y-132305000D03*
X118450000Y-132305000D03*
X118450000Y-131295000D03*
%TD*%
D11*
%TO.C,D57*%
X186460000Y-140745000D03*
X185450000Y-140745000D03*
X185450000Y-142745000D03*
X186460000Y-142745000D03*
%TD*%
D10*
%TO.C,D32*%
X162805000Y-114690000D03*
X162805000Y-115700000D03*
X164805000Y-115700000D03*
X164805000Y-114690000D03*
%TD*%
D11*
%TO.C,D180*%
X135795000Y-102950000D03*
X136805000Y-102950000D03*
X136805000Y-100950000D03*
X135795000Y-100950000D03*
%TD*%
D10*
%TO.C,D164*%
X202505000Y-112400000D03*
X202505000Y-111390000D03*
X200505000Y-111390000D03*
X200505000Y-112400000D03*
%TD*%
D11*
%TO.C,D18*%
X154985000Y-148400000D03*
X153975000Y-148400000D03*
X153975000Y-150400000D03*
X154985000Y-150400000D03*
%TD*%
%TO.C,D22*%
X153975000Y-155400000D03*
X154985000Y-155400000D03*
X154985000Y-153400000D03*
X153975000Y-153400000D03*
%TD*%
D10*
%TO.C,D63*%
X191605000Y-114690000D03*
X191605000Y-115700000D03*
X193605000Y-115700000D03*
X193605000Y-114690000D03*
%TD*%
%TO.C,D101*%
X98550000Y-125705000D03*
X98550000Y-124695000D03*
X96550000Y-124695000D03*
X96550000Y-125705000D03*
%TD*%
D11*
%TO.C,D144*%
X143410000Y-140745000D03*
X142400000Y-140745000D03*
X142400000Y-142745000D03*
X143410000Y-142745000D03*
%TD*%
D10*
%TO.C,D35*%
X162800000Y-127995000D03*
X162800000Y-129005000D03*
X164800000Y-129005000D03*
X164800000Y-127995000D03*
%TD*%
D11*
%TO.C,D161*%
X183160000Y-140745000D03*
X182150000Y-140745000D03*
X182150000Y-142745000D03*
X183160000Y-142745000D03*
%TD*%
%TO.C,D28*%
X174985000Y-158400000D03*
X173975000Y-158400000D03*
X173975000Y-160400000D03*
X174985000Y-160400000D03*
%TD*%
D10*
%TO.C,D163*%
X191605000Y-131290000D03*
X191605000Y-132300000D03*
X193605000Y-132300000D03*
X193605000Y-131290000D03*
%TD*%
D11*
%TO.C,D78*%
X204350000Y-122845000D03*
X205360000Y-122845000D03*
X205360000Y-120845000D03*
X204350000Y-120845000D03*
%TD*%
D10*
%TO.C,D48*%
X173705000Y-138900000D03*
X173705000Y-137890000D03*
X171705000Y-137890000D03*
X171705000Y-138900000D03*
%TD*%
D11*
%TO.C,D141*%
X140110000Y-140745000D03*
X139100000Y-140745000D03*
X139100000Y-142745000D03*
X140110000Y-142745000D03*
%TD*%
D10*
%TO.C,D98*%
X98550000Y-109105000D03*
X98550000Y-108095000D03*
X96550000Y-108095000D03*
X96550000Y-109105000D03*
%TD*%
%TO.C,D149*%
X145245000Y-124690000D03*
X145245000Y-125700000D03*
X147245000Y-125700000D03*
X147245000Y-124690000D03*
%TD*%
%TO.C,D2*%
X89655000Y-105800000D03*
X89655000Y-104790000D03*
X87655000Y-104790000D03*
X87655000Y-105800000D03*
%TD*%
%TO.C,D90*%
X220395000Y-108090000D03*
X220395000Y-109100000D03*
X222395000Y-109100000D03*
X222395000Y-108090000D03*
%TD*%
%TO.C,D45*%
X173705000Y-125700000D03*
X173705000Y-124690000D03*
X171705000Y-124690000D03*
X171705000Y-125700000D03*
%TD*%
D11*
%TO.C,D14*%
X144985000Y-148400000D03*
X143975000Y-148400000D03*
X143975000Y-150400000D03*
X144985000Y-150400000D03*
%TD*%
%TO.C,D52*%
X178850000Y-102945000D03*
X179860000Y-102945000D03*
X179860000Y-100945000D03*
X178850000Y-100945000D03*
%TD*%
D14*
%TO.C,SW2*%
X120525000Y-153200000D03*
X120525000Y-149050000D03*
X122675000Y-153200000D03*
X122675000Y-149050000D03*
%TD*%
D11*
%TO.C,D86*%
X217555000Y-102940000D03*
X218565000Y-102940000D03*
X218565000Y-100940000D03*
X217555000Y-100940000D03*
%TD*%
D10*
%TO.C,D165*%
X202505000Y-132300000D03*
X202505000Y-131290000D03*
X200505000Y-131290000D03*
X200505000Y-132300000D03*
%TD*%
D13*
%TO.C,R14*%
X99225000Y-160950000D03*
X97575000Y-160950000D03*
%TD*%
D11*
%TO.C,D85*%
X215260000Y-140745000D03*
X214250000Y-140745000D03*
X214250000Y-142745000D03*
X215260000Y-142745000D03*
%TD*%
D29*
%TO.C,C2*%
X210300000Y-153775000D03*
X211850000Y-153775000D03*
%TD*%
D10*
%TO.C,D162*%
X191605000Y-111390000D03*
X191605000Y-112400000D03*
X193605000Y-112400000D03*
X193605000Y-111390000D03*
%TD*%
D28*
%TO.C,Q1*%
X209187500Y-151675000D03*
X209187500Y-149775000D03*
X207312500Y-150725000D03*
%TD*%
D11*
%TO.C,D160*%
X183155000Y-120850000D03*
X182145000Y-120850000D03*
X182145000Y-122850000D03*
X183155000Y-122850000D03*
%TD*%
D10*
%TO.C,D171*%
X98550000Y-112405000D03*
X98550000Y-111395000D03*
X96550000Y-111395000D03*
X96550000Y-112405000D03*
%TD*%
D11*
%TO.C,D80*%
X207655000Y-102940000D03*
X208665000Y-102940000D03*
X208665000Y-100940000D03*
X207655000Y-100940000D03*
%TD*%
D10*
%TO.C,D118*%
X116440000Y-108095000D03*
X116440000Y-109105000D03*
X118440000Y-109105000D03*
X118440000Y-108095000D03*
%TD*%
%TO.C,D121*%
X116450000Y-124695000D03*
X116450000Y-125705000D03*
X118450000Y-125705000D03*
X118450000Y-124695000D03*
%TD*%
%TO.C,D169*%
X220395000Y-111390000D03*
X220395000Y-112400000D03*
X222395000Y-112400000D03*
X222395000Y-111390000D03*
%TD*%
%TO.C,D9*%
X89655000Y-138900000D03*
X89655000Y-137890000D03*
X87655000Y-137890000D03*
X87655000Y-138900000D03*
%TD*%
D11*
%TO.C,D110*%
X104705000Y-140740000D03*
X103695000Y-140740000D03*
X103695000Y-142740000D03*
X104705000Y-142740000D03*
%TD*%
D10*
%TO.C,D72*%
X202505000Y-119000000D03*
X202505000Y-117990000D03*
X200505000Y-117990000D03*
X200505000Y-119000000D03*
%TD*%
D11*
%TO.C,D140*%
X139100000Y-122835000D03*
X140110000Y-122835000D03*
X140110000Y-120835000D03*
X139100000Y-120835000D03*
%TD*%
D10*
%TO.C,D74*%
X202505000Y-129000000D03*
X202505000Y-127990000D03*
X200505000Y-127990000D03*
X200505000Y-129000000D03*
%TD*%
%TO.C,D150*%
X145245000Y-127990000D03*
X145245000Y-129000000D03*
X147245000Y-129000000D03*
X147245000Y-127990000D03*
%TD*%
D11*
%TO.C,D116*%
X114605000Y-140740000D03*
X113595000Y-140740000D03*
X113595000Y-142740000D03*
X114605000Y-142740000D03*
%TD*%
D12*
%TO.C,R19*%
X100575000Y-153400000D03*
X102225000Y-153400000D03*
%TD*%
D10*
%TO.C,D91*%
X220395000Y-114690000D03*
X220395000Y-115700000D03*
X222395000Y-115700000D03*
X222395000Y-114690000D03*
%TD*%
%TO.C,D99*%
X98550000Y-115705000D03*
X98550000Y-114695000D03*
X96550000Y-114695000D03*
X96550000Y-115705000D03*
%TD*%
D11*
%TO.C,D143*%
X142400000Y-122835000D03*
X143410000Y-122835000D03*
X143410000Y-120835000D03*
X142400000Y-120835000D03*
%TD*%
D10*
%TO.C,D129*%
X127355000Y-125700000D03*
X127355000Y-124690000D03*
X125355000Y-124690000D03*
X125355000Y-125700000D03*
%TD*%
D28*
%TO.C,Q2*%
X208300000Y-158500000D03*
X208300000Y-156600000D03*
X206425000Y-157550000D03*
%TD*%
D12*
%TO.C,R13*%
X212325000Y-160375000D03*
X213975000Y-160375000D03*
%TD*%
D22*
%TO.C,REF\u002A\u002A*%
X216425000Y-160900000D03*
%TD*%
D11*
%TO.C,D27*%
X174985000Y-148400000D03*
X173975000Y-148400000D03*
X173975000Y-150400000D03*
X174985000Y-150400000D03*
%TD*%
%TO.C,D39*%
X183995000Y-155400000D03*
X185005000Y-155400000D03*
X185005000Y-153400000D03*
X183995000Y-153400000D03*
%TD*%
%TO.C,D107*%
X101405000Y-140740000D03*
X100395000Y-140740000D03*
X100395000Y-142740000D03*
X101405000Y-142740000D03*
%TD*%
%TO.C,D84*%
X214250000Y-122845000D03*
X215260000Y-122845000D03*
X215260000Y-120845000D03*
X214250000Y-120845000D03*
%TD*%
%TO.C,D111*%
X110295000Y-102950000D03*
X111305000Y-102950000D03*
X111305000Y-100950000D03*
X110295000Y-100950000D03*
%TD*%
D10*
%TO.C,D46*%
X173705000Y-129000000D03*
X173705000Y-127990000D03*
X171705000Y-127990000D03*
X171705000Y-129000000D03*
%TD*%
D30*
%TO.C,C4*%
X108500000Y-160500000D03*
X108500000Y-158950000D03*
%TD*%
D11*
%TO.C,D109*%
X111300000Y-120850000D03*
X110290000Y-120850000D03*
X110290000Y-122850000D03*
X111300000Y-122850000D03*
%TD*%
D10*
%TO.C,D97*%
X98550000Y-105805000D03*
X98550000Y-104795000D03*
X96550000Y-104795000D03*
X96550000Y-105805000D03*
%TD*%
%TO.C,D76*%
X202505000Y-138900000D03*
X202505000Y-137890000D03*
X200505000Y-137890000D03*
X200505000Y-138900000D03*
%TD*%
%TO.C,D179*%
X127355000Y-132300000D03*
X127355000Y-131290000D03*
X125355000Y-131290000D03*
X125355000Y-132300000D03*
%TD*%
D11*
%TO.C,D105*%
X100395000Y-102950000D03*
X101405000Y-102950000D03*
X101405000Y-100950000D03*
X100395000Y-100950000D03*
%TD*%
%TO.C,D88*%
X218560000Y-140745000D03*
X217550000Y-140745000D03*
X217550000Y-142745000D03*
X218560000Y-142745000D03*
%TD*%
D30*
%TO.C,C6*%
X106925000Y-160500000D03*
X106925000Y-158950000D03*
%TD*%
D11*
%TO.C,D138*%
X133510000Y-140745000D03*
X132500000Y-140745000D03*
X132500000Y-142745000D03*
X133510000Y-142745000D03*
%TD*%
D10*
%TO.C,D20*%
X120875000Y-98920000D03*
X120875000Y-99930000D03*
X122875000Y-99930000D03*
X122875000Y-98920000D03*
%TD*%
D11*
%TO.C,D81*%
X207650000Y-122845000D03*
X208660000Y-122845000D03*
X208660000Y-120845000D03*
X207650000Y-120845000D03*
%TD*%
D13*
%TO.C,R17*%
X102225000Y-151900000D03*
X100575000Y-151900000D03*
%TD*%
D10*
%TO.C,D73*%
X202505000Y-125700000D03*
X202505000Y-124690000D03*
X200505000Y-124690000D03*
X200505000Y-125700000D03*
%TD*%
%TO.C,D155*%
X162805000Y-111390000D03*
X162805000Y-112400000D03*
X164805000Y-112400000D03*
X164805000Y-111390000D03*
%TD*%
D31*
%TO.C,Q4*%
X100912500Y-158900000D03*
X100912500Y-160800000D03*
X102787500Y-159850000D03*
%TD*%
D10*
%TO.C,D158*%
X173705000Y-132300000D03*
X173705000Y-131290000D03*
X171705000Y-131290000D03*
X171705000Y-132300000D03*
%TD*%
%TO.C,D183*%
X145255000Y-111390000D03*
X145255000Y-112400000D03*
X147255000Y-112400000D03*
X147255000Y-111390000D03*
%TD*%
%TO.C,D148*%
X145255000Y-117990000D03*
X145255000Y-119000000D03*
X147255000Y-119000000D03*
X147255000Y-117990000D03*
%TD*%
%TO.C,D176*%
X116440000Y-111395000D03*
X116440000Y-112405000D03*
X118440000Y-112405000D03*
X118440000Y-111395000D03*
%TD*%
D21*
%TO.C,C3*%
X110000000Y-158950000D03*
X110000000Y-160500000D03*
%TD*%
D22*
%TO.C,REF\u002A\u002A*%
X217175000Y-146725000D03*
%TD*%
D10*
%TO.C,D172*%
X98550000Y-132305000D03*
X98550000Y-131295000D03*
X96550000Y-131295000D03*
X96550000Y-132305000D03*
%TD*%
%TO.C,D71*%
X202505000Y-115700000D03*
X202505000Y-114690000D03*
X200505000Y-114690000D03*
X200505000Y-115700000D03*
%TD*%
%TO.C,D62*%
X191605000Y-108090000D03*
X191605000Y-109100000D03*
X193605000Y-109100000D03*
X193605000Y-108090000D03*
%TD*%
D11*
%TO.C,D133*%
X129195000Y-102950000D03*
X130205000Y-102950000D03*
X130205000Y-100950000D03*
X129195000Y-100950000D03*
%TD*%
D10*
%TO.C,D128*%
X127355000Y-119000000D03*
X127355000Y-117990000D03*
X125355000Y-117990000D03*
X125355000Y-119000000D03*
%TD*%
%TO.C,D122*%
X116450000Y-127995000D03*
X116450000Y-129005000D03*
X118450000Y-129005000D03*
X118450000Y-127995000D03*
%TD*%
%TO.C,D68*%
X191605000Y-137890000D03*
X191605000Y-138900000D03*
X193605000Y-138900000D03*
X193605000Y-137890000D03*
%TD*%
D32*
%TO.C,J1*%
X93890000Y-146800000D03*
D33*
X93890000Y-144260000D03*
D32*
X93890000Y-141720000D03*
X88175000Y-146800000D03*
X88175000Y-141720000D03*
D33*
X86270000Y-145275000D03*
X86270000Y-143245000D03*
%TD*%
D34*
%TO.C,BT2*%
X211250000Y-151125000D03*
X141250000Y-151125000D03*
%TD*%
D35*
%TO.C,BT1*%
X214375000Y-158800000D03*
D36*
X214375000Y-156800000D03*
%TD*%
M02*
