%TF.GenerationSoftware,KiCad,Pcbnew,(6.0.4)*%
%TF.CreationDate,2024-03-18T00:53:08-04:00*%
%TF.ProjectId,Scoreboard,53636f72-6562-46f6-9172-642e6b696361,rev?*%
%TF.SameCoordinates,Original*%
%TF.FileFunction,Legend,Bot*%
%TF.FilePolarity,Positive*%
%FSLAX46Y46*%
G04 Gerber Fmt 4.6, Leading zero omitted, Abs format (unit mm)*
G04 Created by KiCad (PCBNEW (6.0.4)) date 2024-03-18 00:53:08*
%MOMM*%
%LPD*%
G01*
G04 APERTURE LIST*
%ADD10C,0.100000*%
%ADD11C,0.150000*%
%ADD12C,0.080000*%
%ADD13C,0.127000*%
G04 APERTURE END LIST*
D10*
X72629761Y-78321190D02*
X72344047Y-78321190D01*
X72486904Y-78821190D02*
X72486904Y-78321190D01*
X71963095Y-78821190D02*
X71963095Y-78559285D01*
X71986904Y-78511666D01*
X72034523Y-78487857D01*
X72129761Y-78487857D01*
X72177380Y-78511666D01*
X71963095Y-78797380D02*
X72010714Y-78821190D01*
X72129761Y-78821190D01*
X72177380Y-78797380D01*
X72201190Y-78749761D01*
X72201190Y-78702142D01*
X72177380Y-78654523D01*
X72129761Y-78630714D01*
X72010714Y-78630714D01*
X71963095Y-78606904D01*
X71510714Y-78487857D02*
X71510714Y-78892619D01*
X71534523Y-78940238D01*
X71558333Y-78964047D01*
X71605952Y-78987857D01*
X71677380Y-78987857D01*
X71725000Y-78964047D01*
X71510714Y-78797380D02*
X71558333Y-78821190D01*
X71653571Y-78821190D01*
X71701190Y-78797380D01*
X71725000Y-78773571D01*
X71748809Y-78725952D01*
X71748809Y-78583095D01*
X71725000Y-78535476D01*
X71701190Y-78511666D01*
X71653571Y-78487857D01*
X71558333Y-78487857D01*
X71510714Y-78511666D01*
X71272619Y-78630714D02*
X70891666Y-78630714D01*
X70367857Y-78773571D02*
X70391666Y-78797380D01*
X70463095Y-78821190D01*
X70510714Y-78821190D01*
X70582142Y-78797380D01*
X70629761Y-78749761D01*
X70653571Y-78702142D01*
X70677380Y-78606904D01*
X70677380Y-78535476D01*
X70653571Y-78440238D01*
X70629761Y-78392619D01*
X70582142Y-78345000D01*
X70510714Y-78321190D01*
X70463095Y-78321190D01*
X70391666Y-78345000D01*
X70367857Y-78368809D01*
X70082142Y-78821190D02*
X70129761Y-78797380D01*
X70153571Y-78773571D01*
X70177380Y-78725952D01*
X70177380Y-78583095D01*
X70153571Y-78535476D01*
X70129761Y-78511666D01*
X70082142Y-78487857D01*
X70010714Y-78487857D01*
X69963095Y-78511666D01*
X69939285Y-78535476D01*
X69915476Y-78583095D01*
X69915476Y-78725952D01*
X69939285Y-78773571D01*
X69963095Y-78797380D01*
X70010714Y-78821190D01*
X70082142Y-78821190D01*
X69701190Y-78487857D02*
X69701190Y-78821190D01*
X69701190Y-78535476D02*
X69677380Y-78511666D01*
X69629761Y-78487857D01*
X69558333Y-78487857D01*
X69510714Y-78511666D01*
X69486904Y-78559285D01*
X69486904Y-78821190D01*
X69248809Y-78487857D02*
X69248809Y-78821190D01*
X69248809Y-78535476D02*
X69225000Y-78511666D01*
X69177380Y-78487857D01*
X69105952Y-78487857D01*
X69058333Y-78511666D01*
X69034523Y-78559285D01*
X69034523Y-78821190D01*
X68605952Y-78797380D02*
X68653571Y-78821190D01*
X68748809Y-78821190D01*
X68796428Y-78797380D01*
X68820238Y-78749761D01*
X68820238Y-78559285D01*
X68796428Y-78511666D01*
X68748809Y-78487857D01*
X68653571Y-78487857D01*
X68605952Y-78511666D01*
X68582142Y-78559285D01*
X68582142Y-78606904D01*
X68820238Y-78654523D01*
X68153571Y-78797380D02*
X68201190Y-78821190D01*
X68296428Y-78821190D01*
X68344047Y-78797380D01*
X68367857Y-78773571D01*
X68391666Y-78725952D01*
X68391666Y-78583095D01*
X68367857Y-78535476D01*
X68344047Y-78511666D01*
X68296428Y-78487857D01*
X68201190Y-78487857D01*
X68153571Y-78511666D01*
X68010714Y-78487857D02*
X67820238Y-78487857D01*
X67939285Y-78321190D02*
X67939285Y-78749761D01*
X67915476Y-78797380D01*
X67867857Y-78821190D01*
X67820238Y-78821190D01*
X72498809Y-79126190D02*
X72213095Y-79126190D01*
X72355952Y-79626190D02*
X72355952Y-79126190D01*
X71760714Y-79578571D02*
X71784523Y-79602380D01*
X71855952Y-79626190D01*
X71903571Y-79626190D01*
X71975000Y-79602380D01*
X72022619Y-79554761D01*
X72046428Y-79507142D01*
X72070238Y-79411904D01*
X72070238Y-79340476D01*
X72046428Y-79245238D01*
X72022619Y-79197619D01*
X71975000Y-79150000D01*
X71903571Y-79126190D01*
X71855952Y-79126190D01*
X71784523Y-79150000D01*
X71760714Y-79173809D01*
X71570238Y-79173809D02*
X71546428Y-79150000D01*
X71498809Y-79126190D01*
X71379761Y-79126190D01*
X71332142Y-79150000D01*
X71308333Y-79173809D01*
X71284523Y-79221428D01*
X71284523Y-79269047D01*
X71308333Y-79340476D01*
X71594047Y-79626190D01*
X71284523Y-79626190D01*
X70975000Y-79126190D02*
X70927380Y-79126190D01*
X70879761Y-79150000D01*
X70855952Y-79173809D01*
X70832142Y-79221428D01*
X70808333Y-79316666D01*
X70808333Y-79435714D01*
X70832142Y-79530952D01*
X70855952Y-79578571D01*
X70879761Y-79602380D01*
X70927380Y-79626190D01*
X70975000Y-79626190D01*
X71022619Y-79602380D01*
X71046428Y-79578571D01*
X71070238Y-79530952D01*
X71094047Y-79435714D01*
X71094047Y-79316666D01*
X71070238Y-79221428D01*
X71046428Y-79173809D01*
X71022619Y-79150000D01*
X70975000Y-79126190D01*
X70355952Y-79126190D02*
X70594047Y-79126190D01*
X70617857Y-79364285D01*
X70594047Y-79340476D01*
X70546428Y-79316666D01*
X70427380Y-79316666D01*
X70379761Y-79340476D01*
X70355952Y-79364285D01*
X70332142Y-79411904D01*
X70332142Y-79530952D01*
X70355952Y-79578571D01*
X70379761Y-79602380D01*
X70427380Y-79626190D01*
X70546428Y-79626190D01*
X70594047Y-79602380D01*
X70617857Y-79578571D01*
X70022619Y-79126190D02*
X69975000Y-79126190D01*
X69927380Y-79150000D01*
X69903571Y-79173809D01*
X69879761Y-79221428D01*
X69855952Y-79316666D01*
X69855952Y-79435714D01*
X69879761Y-79530952D01*
X69903571Y-79578571D01*
X69927380Y-79602380D01*
X69975000Y-79626190D01*
X70022619Y-79626190D01*
X70070238Y-79602380D01*
X70094047Y-79578571D01*
X70117857Y-79530952D01*
X70141666Y-79435714D01*
X70141666Y-79316666D01*
X70117857Y-79221428D01*
X70094047Y-79173809D01*
X70070238Y-79150000D01*
X70022619Y-79126190D01*
X69641666Y-79435714D02*
X69260714Y-79435714D01*
X69022619Y-79626190D02*
X69022619Y-79126190D01*
X68784523Y-79626190D02*
X68784523Y-79126190D01*
X68665476Y-79126190D01*
X68594047Y-79150000D01*
X68546428Y-79197619D01*
X68522619Y-79245238D01*
X68498809Y-79340476D01*
X68498809Y-79411904D01*
X68522619Y-79507142D01*
X68546428Y-79554761D01*
X68594047Y-79602380D01*
X68665476Y-79626190D01*
X68784523Y-79626190D01*
X67998809Y-79578571D02*
X68022619Y-79602380D01*
X68094047Y-79626190D01*
X68141666Y-79626190D01*
X68213095Y-79602380D01*
X68260714Y-79554761D01*
X68284523Y-79507142D01*
X68308333Y-79411904D01*
X68308333Y-79340476D01*
X68284523Y-79245238D01*
X68260714Y-79197619D01*
X68213095Y-79150000D01*
X68141666Y-79126190D01*
X68094047Y-79126190D01*
X68022619Y-79150000D01*
X67998809Y-79173809D01*
X73546428Y-80431190D02*
X73546428Y-79931190D01*
X73355952Y-79931190D01*
X73308333Y-79955000D01*
X73284523Y-79978809D01*
X73260714Y-80026428D01*
X73260714Y-80097857D01*
X73284523Y-80145476D01*
X73308333Y-80169285D01*
X73355952Y-80193095D01*
X73546428Y-80193095D01*
X73046428Y-80431190D02*
X73046428Y-80097857D01*
X73046428Y-80193095D02*
X73022619Y-80145476D01*
X72998809Y-80121666D01*
X72951190Y-80097857D01*
X72903571Y-80097857D01*
X72665476Y-80431190D02*
X72713095Y-80407380D01*
X72736904Y-80383571D01*
X72760714Y-80335952D01*
X72760714Y-80193095D01*
X72736904Y-80145476D01*
X72713095Y-80121666D01*
X72665476Y-80097857D01*
X72594047Y-80097857D01*
X72546428Y-80121666D01*
X72522619Y-80145476D01*
X72498809Y-80193095D01*
X72498809Y-80335952D01*
X72522619Y-80383571D01*
X72546428Y-80407380D01*
X72594047Y-80431190D01*
X72665476Y-80431190D01*
X72070238Y-80097857D02*
X72070238Y-80502619D01*
X72094047Y-80550238D01*
X72117857Y-80574047D01*
X72165476Y-80597857D01*
X72236904Y-80597857D01*
X72284523Y-80574047D01*
X72070238Y-80407380D02*
X72117857Y-80431190D01*
X72213095Y-80431190D01*
X72260714Y-80407380D01*
X72284523Y-80383571D01*
X72308333Y-80335952D01*
X72308333Y-80193095D01*
X72284523Y-80145476D01*
X72260714Y-80121666D01*
X72213095Y-80097857D01*
X72117857Y-80097857D01*
X72070238Y-80121666D01*
X71832142Y-80431190D02*
X71832142Y-80097857D01*
X71832142Y-80193095D02*
X71808333Y-80145476D01*
X71784523Y-80121666D01*
X71736904Y-80097857D01*
X71689285Y-80097857D01*
X71308333Y-80431190D02*
X71308333Y-80169285D01*
X71332142Y-80121666D01*
X71379761Y-80097857D01*
X71475000Y-80097857D01*
X71522619Y-80121666D01*
X71308333Y-80407380D02*
X71355952Y-80431190D01*
X71475000Y-80431190D01*
X71522619Y-80407380D01*
X71546428Y-80359761D01*
X71546428Y-80312142D01*
X71522619Y-80264523D01*
X71475000Y-80240714D01*
X71355952Y-80240714D01*
X71308333Y-80216904D01*
X71070238Y-80431190D02*
X71070238Y-80097857D01*
X71070238Y-80145476D02*
X71046428Y-80121666D01*
X70998809Y-80097857D01*
X70927380Y-80097857D01*
X70879761Y-80121666D01*
X70855952Y-80169285D01*
X70855952Y-80431190D01*
X70855952Y-80169285D02*
X70832142Y-80121666D01*
X70784523Y-80097857D01*
X70713095Y-80097857D01*
X70665476Y-80121666D01*
X70641666Y-80169285D01*
X70641666Y-80431190D01*
X70403571Y-80431190D02*
X70403571Y-80097857D01*
X70403571Y-80145476D02*
X70379761Y-80121666D01*
X70332142Y-80097857D01*
X70260714Y-80097857D01*
X70213095Y-80121666D01*
X70189285Y-80169285D01*
X70189285Y-80431190D01*
X70189285Y-80169285D02*
X70165476Y-80121666D01*
X70117857Y-80097857D01*
X70046428Y-80097857D01*
X69998809Y-80121666D01*
X69975000Y-80169285D01*
X69975000Y-80431190D01*
X69736904Y-80431190D02*
X69736904Y-80097857D01*
X69736904Y-79931190D02*
X69760714Y-79955000D01*
X69736904Y-79978809D01*
X69713095Y-79955000D01*
X69736904Y-79931190D01*
X69736904Y-79978809D01*
X69498809Y-80097857D02*
X69498809Y-80431190D01*
X69498809Y-80145476D02*
X69475000Y-80121666D01*
X69427380Y-80097857D01*
X69355952Y-80097857D01*
X69308333Y-80121666D01*
X69284523Y-80169285D01*
X69284523Y-80431190D01*
X68832142Y-80097857D02*
X68832142Y-80502619D01*
X68855952Y-80550238D01*
X68879761Y-80574047D01*
X68927380Y-80597857D01*
X68998809Y-80597857D01*
X69046428Y-80574047D01*
X68832142Y-80407380D02*
X68879761Y-80431190D01*
X68975000Y-80431190D01*
X69022619Y-80407380D01*
X69046428Y-80383571D01*
X69070238Y-80335952D01*
X69070238Y-80193095D01*
X69046428Y-80145476D01*
X69022619Y-80121666D01*
X68975000Y-80097857D01*
X68879761Y-80097857D01*
X68832142Y-80121666D01*
X68213095Y-80431190D02*
X68213095Y-79931190D01*
X68022619Y-79931190D01*
X67975000Y-79955000D01*
X67951190Y-79978809D01*
X67927380Y-80026428D01*
X67927380Y-80097857D01*
X67951190Y-80145476D01*
X67975000Y-80169285D01*
X68022619Y-80193095D01*
X68213095Y-80193095D01*
X67641666Y-80431190D02*
X67689285Y-80407380D01*
X67713095Y-80383571D01*
X67736904Y-80335952D01*
X67736904Y-80193095D01*
X67713095Y-80145476D01*
X67689285Y-80121666D01*
X67641666Y-80097857D01*
X67570238Y-80097857D01*
X67522619Y-80121666D01*
X67498809Y-80145476D01*
X67475000Y-80193095D01*
X67475000Y-80335952D01*
X67498809Y-80383571D01*
X67522619Y-80407380D01*
X67570238Y-80431190D01*
X67641666Y-80431190D01*
X67260714Y-80431190D02*
X67260714Y-80097857D01*
X67260714Y-80193095D02*
X67236904Y-80145476D01*
X67213095Y-80121666D01*
X67165476Y-80097857D01*
X67117857Y-80097857D01*
X67022619Y-80097857D02*
X66832142Y-80097857D01*
X66951190Y-79931190D02*
X66951190Y-80359761D01*
X66927380Y-80407380D01*
X66879761Y-80431190D01*
X66832142Y-80431190D01*
X77676190Y-69272500D02*
X77723809Y-69248690D01*
X77795238Y-69248690D01*
X77866666Y-69272500D01*
X77914285Y-69320119D01*
X77938095Y-69367738D01*
X77961904Y-69462976D01*
X77961904Y-69534404D01*
X77938095Y-69629642D01*
X77914285Y-69677261D01*
X77866666Y-69724880D01*
X77795238Y-69748690D01*
X77747619Y-69748690D01*
X77676190Y-69724880D01*
X77652380Y-69701071D01*
X77652380Y-69534404D01*
X77747619Y-69534404D01*
X77438095Y-69748690D02*
X77438095Y-69248690D01*
X77152380Y-69748690D01*
X77152380Y-69248690D01*
X76914285Y-69748690D02*
X76914285Y-69248690D01*
X76795238Y-69248690D01*
X76723809Y-69272500D01*
X76676190Y-69320119D01*
X76652380Y-69367738D01*
X76628571Y-69462976D01*
X76628571Y-69534404D01*
X76652380Y-69629642D01*
X76676190Y-69677261D01*
X76723809Y-69724880D01*
X76795238Y-69748690D01*
X76914285Y-69748690D01*
X76057142Y-69724880D02*
X75985714Y-69748690D01*
X75866666Y-69748690D01*
X75819047Y-69724880D01*
X75795238Y-69701071D01*
X75771428Y-69653452D01*
X75771428Y-69605833D01*
X75795238Y-69558214D01*
X75819047Y-69534404D01*
X75866666Y-69510595D01*
X75961904Y-69486785D01*
X76009523Y-69462976D01*
X76033333Y-69439166D01*
X76057142Y-69391547D01*
X76057142Y-69343928D01*
X76033333Y-69296309D01*
X76009523Y-69272500D01*
X75961904Y-69248690D01*
X75842857Y-69248690D01*
X75771428Y-69272500D01*
X75604761Y-69248690D02*
X75485714Y-69748690D01*
X75390476Y-69391547D01*
X75295238Y-69748690D01*
X75176190Y-69248690D01*
X74700000Y-69701071D02*
X74723809Y-69724880D01*
X74795238Y-69748690D01*
X74842857Y-69748690D01*
X74914285Y-69724880D01*
X74961904Y-69677261D01*
X74985714Y-69629642D01*
X75009523Y-69534404D01*
X75009523Y-69462976D01*
X74985714Y-69367738D01*
X74961904Y-69320119D01*
X74914285Y-69272500D01*
X74842857Y-69248690D01*
X74795238Y-69248690D01*
X74723809Y-69272500D01*
X74700000Y-69296309D01*
X74247619Y-69748690D02*
X74485714Y-69748690D01*
X74485714Y-69248690D01*
X74080952Y-69748690D02*
X74080952Y-69248690D01*
X73795238Y-69748690D02*
X74009523Y-69462976D01*
X73795238Y-69248690D02*
X74080952Y-69534404D01*
X72938095Y-69272500D02*
X72985714Y-69248690D01*
X73057142Y-69248690D01*
X73128571Y-69272500D01*
X73176190Y-69320119D01*
X73200000Y-69367738D01*
X73223809Y-69462976D01*
X73223809Y-69534404D01*
X73200000Y-69629642D01*
X73176190Y-69677261D01*
X73128571Y-69724880D01*
X73057142Y-69748690D01*
X73009523Y-69748690D01*
X72938095Y-69724880D01*
X72914285Y-69701071D01*
X72914285Y-69534404D01*
X73009523Y-69534404D01*
X72700000Y-69748690D02*
X72700000Y-69248690D01*
X72414285Y-69748690D01*
X72414285Y-69248690D01*
X72176190Y-69748690D02*
X72176190Y-69248690D01*
X72057142Y-69248690D01*
X71985714Y-69272500D01*
X71938095Y-69320119D01*
X71914285Y-69367738D01*
X71890476Y-69462976D01*
X71890476Y-69534404D01*
X71914285Y-69629642D01*
X71938095Y-69677261D01*
X71985714Y-69724880D01*
X72057142Y-69748690D01*
X72176190Y-69748690D01*
X70938095Y-69724880D02*
X70866666Y-69748690D01*
X70747619Y-69748690D01*
X70700000Y-69724880D01*
X70676190Y-69701071D01*
X70652380Y-69653452D01*
X70652380Y-69605833D01*
X70676190Y-69558214D01*
X70700000Y-69534404D01*
X70747619Y-69510595D01*
X70842857Y-69486785D01*
X70890476Y-69462976D01*
X70914285Y-69439166D01*
X70938095Y-69391547D01*
X70938095Y-69343928D01*
X70914285Y-69296309D01*
X70890476Y-69272500D01*
X70842857Y-69248690D01*
X70723809Y-69248690D01*
X70652380Y-69272500D01*
X70485714Y-69248690D02*
X70366666Y-69748690D01*
X70271428Y-69391547D01*
X70176190Y-69748690D01*
X70057142Y-69248690D01*
X69866666Y-69748690D02*
X69866666Y-69248690D01*
X69747619Y-69248690D01*
X69676190Y-69272500D01*
X69628571Y-69320119D01*
X69604761Y-69367738D01*
X69580952Y-69462976D01*
X69580952Y-69534404D01*
X69604761Y-69629642D01*
X69628571Y-69677261D01*
X69676190Y-69724880D01*
X69747619Y-69748690D01*
X69866666Y-69748690D01*
X69366666Y-69748690D02*
X69366666Y-69248690D01*
X69033333Y-69248690D02*
X68938095Y-69248690D01*
X68890476Y-69272500D01*
X68842857Y-69320119D01*
X68819047Y-69415357D01*
X68819047Y-69582023D01*
X68842857Y-69677261D01*
X68890476Y-69724880D01*
X68938095Y-69748690D01*
X69033333Y-69748690D01*
X69080952Y-69724880D01*
X69128571Y-69677261D01*
X69152380Y-69582023D01*
X69152380Y-69415357D01*
X69128571Y-69320119D01*
X69080952Y-69272500D01*
X69033333Y-69248690D01*
X68223809Y-69558214D02*
X67842857Y-69558214D01*
X68033333Y-69748690D02*
X68033333Y-69367738D01*
X67652380Y-69248690D02*
X67342857Y-69248690D01*
X67509523Y-69439166D01*
X67438095Y-69439166D01*
X67390476Y-69462976D01*
X67366666Y-69486785D01*
X67342857Y-69534404D01*
X67342857Y-69653452D01*
X67366666Y-69701071D01*
X67390476Y-69724880D01*
X67438095Y-69748690D01*
X67580952Y-69748690D01*
X67628571Y-69724880D01*
X67652380Y-69701071D01*
X67200000Y-69248690D02*
X67033333Y-69748690D01*
X66866666Y-69248690D01*
X66747619Y-69248690D02*
X66438095Y-69248690D01*
X66604761Y-69439166D01*
X66533333Y-69439166D01*
X66485714Y-69462976D01*
X66461904Y-69486785D01*
X66438095Y-69534404D01*
X66438095Y-69653452D01*
X66461904Y-69701071D01*
X66485714Y-69724880D01*
X66533333Y-69748690D01*
X66676190Y-69748690D01*
X66723809Y-69724880D01*
X66747619Y-69701071D01*
X77854761Y-70529880D02*
X77783333Y-70553690D01*
X77664285Y-70553690D01*
X77616666Y-70529880D01*
X77592857Y-70506071D01*
X77569047Y-70458452D01*
X77569047Y-70410833D01*
X77592857Y-70363214D01*
X77616666Y-70339404D01*
X77664285Y-70315595D01*
X77759523Y-70291785D01*
X77807142Y-70267976D01*
X77830952Y-70244166D01*
X77854761Y-70196547D01*
X77854761Y-70148928D01*
X77830952Y-70101309D01*
X77807142Y-70077500D01*
X77759523Y-70053690D01*
X77640476Y-70053690D01*
X77569047Y-70077500D01*
X77402380Y-70053690D02*
X77283333Y-70553690D01*
X77188095Y-70196547D01*
X77092857Y-70553690D01*
X76973809Y-70053690D01*
X76688095Y-70053690D02*
X76592857Y-70053690D01*
X76545238Y-70077500D01*
X76497619Y-70125119D01*
X76473809Y-70220357D01*
X76473809Y-70387023D01*
X76497619Y-70482261D01*
X76545238Y-70529880D01*
X76592857Y-70553690D01*
X76688095Y-70553690D01*
X76735714Y-70529880D01*
X76783333Y-70482261D01*
X76807142Y-70387023D01*
X76807142Y-70220357D01*
X76783333Y-70125119D01*
X76735714Y-70077500D01*
X76688095Y-70053690D01*
X74783333Y-70053690D02*
X74450000Y-70553690D01*
X74450000Y-70053690D02*
X74783333Y-70553690D01*
X72783333Y-70053690D02*
X72450000Y-70553690D01*
X72450000Y-70053690D02*
X72783333Y-70553690D01*
X70092857Y-70077500D02*
X70140476Y-70053690D01*
X70211904Y-70053690D01*
X70283333Y-70077500D01*
X70330952Y-70125119D01*
X70354761Y-70172738D01*
X70378571Y-70267976D01*
X70378571Y-70339404D01*
X70354761Y-70434642D01*
X70330952Y-70482261D01*
X70283333Y-70529880D01*
X70211904Y-70553690D01*
X70164285Y-70553690D01*
X70092857Y-70529880D01*
X70069047Y-70506071D01*
X70069047Y-70339404D01*
X70164285Y-70339404D01*
X69854761Y-70553690D02*
X69854761Y-70053690D01*
X69569047Y-70553690D01*
X69569047Y-70053690D01*
X69330952Y-70553690D02*
X69330952Y-70053690D01*
X69211904Y-70053690D01*
X69140476Y-70077500D01*
X69092857Y-70125119D01*
X69069047Y-70172738D01*
X69045238Y-70267976D01*
X69045238Y-70339404D01*
X69069047Y-70434642D01*
X69092857Y-70482261D01*
X69140476Y-70529880D01*
X69211904Y-70553690D01*
X69330952Y-70553690D01*
X67402380Y-70553690D02*
X67569047Y-70315595D01*
X67688095Y-70553690D02*
X67688095Y-70053690D01*
X67497619Y-70053690D01*
X67450000Y-70077500D01*
X67426190Y-70101309D01*
X67402380Y-70148928D01*
X67402380Y-70220357D01*
X67426190Y-70267976D01*
X67450000Y-70291785D01*
X67497619Y-70315595D01*
X67688095Y-70315595D01*
X67211904Y-70529880D02*
X67140476Y-70553690D01*
X67021428Y-70553690D01*
X66973809Y-70529880D01*
X66950000Y-70506071D01*
X66926190Y-70458452D01*
X66926190Y-70410833D01*
X66950000Y-70363214D01*
X66973809Y-70339404D01*
X67021428Y-70315595D01*
X67116666Y-70291785D01*
X67164285Y-70267976D01*
X67188095Y-70244166D01*
X67211904Y-70196547D01*
X67211904Y-70148928D01*
X67188095Y-70101309D01*
X67164285Y-70077500D01*
X67116666Y-70053690D01*
X66997619Y-70053690D01*
X66926190Y-70077500D01*
X66783333Y-70053690D02*
X66497619Y-70053690D01*
X66640476Y-70553690D02*
X66640476Y-70053690D01*
D11*
X205116666Y-77750000D02*
X206183333Y-77750000D01*
D10*
%TO.C,BT2*%
X181167857Y-76439285D02*
X181096428Y-76463095D01*
X181072619Y-76486904D01*
X181048809Y-76534523D01*
X181048809Y-76605952D01*
X181072619Y-76653571D01*
X181096428Y-76677380D01*
X181144047Y-76701190D01*
X181334523Y-76701190D01*
X181334523Y-76201190D01*
X181167857Y-76201190D01*
X181120238Y-76225000D01*
X181096428Y-76248809D01*
X181072619Y-76296428D01*
X181072619Y-76344047D01*
X181096428Y-76391666D01*
X181120238Y-76415476D01*
X181167857Y-76439285D01*
X181334523Y-76439285D01*
X180905952Y-76201190D02*
X180620238Y-76201190D01*
X180763095Y-76701190D02*
X180763095Y-76201190D01*
X180477380Y-76248809D02*
X180453571Y-76225000D01*
X180405952Y-76201190D01*
X180286904Y-76201190D01*
X180239285Y-76225000D01*
X180215476Y-76248809D01*
X180191666Y-76296428D01*
X180191666Y-76344047D01*
X180215476Y-76415476D01*
X180501190Y-76701190D01*
X180191666Y-76701190D01*
D11*
X147958333Y-89300000D02*
X146891666Y-89300000D01*
X147425000Y-89833333D02*
X147425000Y-88766666D01*
D10*
%TO.C,J1*%
X75316666Y-74201190D02*
X75316666Y-74558333D01*
X75340476Y-74629761D01*
X75388095Y-74677380D01*
X75459523Y-74701190D01*
X75507142Y-74701190D01*
X74816666Y-74701190D02*
X75102380Y-74701190D01*
X74959523Y-74701190D02*
X74959523Y-74201190D01*
X75007142Y-74272619D01*
X75054761Y-74320238D01*
X75102380Y-74344047D01*
D12*
X74364761Y-75671690D02*
X74460000Y-75671690D01*
X74507619Y-75695500D01*
X74531428Y-75719309D01*
X74579047Y-75790738D01*
X74602857Y-75885976D01*
X74602857Y-76076452D01*
X74579047Y-76124071D01*
X74555238Y-76147880D01*
X74507619Y-76171690D01*
X74412380Y-76171690D01*
X74364761Y-76147880D01*
X74340952Y-76124071D01*
X74317142Y-76076452D01*
X74317142Y-75957404D01*
X74340952Y-75909785D01*
X74364761Y-75885976D01*
X74412380Y-75862166D01*
X74507619Y-75862166D01*
X74555238Y-75885976D01*
X74579047Y-75909785D01*
X74602857Y-75957404D01*
X68602142Y-73187190D02*
X68887857Y-73187190D01*
X68745000Y-73187190D02*
X68745000Y-72687190D01*
X68792619Y-72758619D01*
X68840238Y-72806238D01*
X68887857Y-72830047D01*
X68840238Y-76171690D02*
X69125952Y-76171690D01*
X68983095Y-76171690D02*
X68983095Y-75671690D01*
X69030714Y-75743119D01*
X69078333Y-75790738D01*
X69125952Y-75814547D01*
X68530714Y-75671690D02*
X68483095Y-75671690D01*
X68435476Y-75695500D01*
X68411666Y-75719309D01*
X68387857Y-75766928D01*
X68364047Y-75862166D01*
X68364047Y-75981214D01*
X68387857Y-76076452D01*
X68411666Y-76124071D01*
X68435476Y-76147880D01*
X68483095Y-76171690D01*
X68530714Y-76171690D01*
X68578333Y-76147880D01*
X68602142Y-76124071D01*
X68625952Y-76076452D01*
X68649761Y-75981214D01*
X68649761Y-75862166D01*
X68625952Y-75766928D01*
X68602142Y-75719309D01*
X68578333Y-75695500D01*
X68530714Y-75671690D01*
X74340952Y-72687190D02*
X74579047Y-72687190D01*
X74602857Y-72925285D01*
X74579047Y-72901476D01*
X74531428Y-72877666D01*
X74412380Y-72877666D01*
X74364761Y-72901476D01*
X74340952Y-72925285D01*
X74317142Y-72972904D01*
X74317142Y-73091952D01*
X74340952Y-73139571D01*
X74364761Y-73163380D01*
X74412380Y-73187190D01*
X74531428Y-73187190D01*
X74579047Y-73163380D01*
X74602857Y-73139571D01*
D10*
%TO.C,AE1*%
X145808333Y-58653571D02*
X145832142Y-58677380D01*
X145903571Y-58701190D01*
X145951190Y-58701190D01*
X146022619Y-58677380D01*
X146070238Y-58629761D01*
X146094047Y-58582142D01*
X146117857Y-58486904D01*
X146117857Y-58415476D01*
X146094047Y-58320238D01*
X146070238Y-58272619D01*
X146022619Y-58225000D01*
X145951190Y-58201190D01*
X145903571Y-58201190D01*
X145832142Y-58225000D01*
X145808333Y-58248809D01*
X145522619Y-58701190D02*
X145570238Y-58677380D01*
X145594047Y-58629761D01*
X145594047Y-58201190D01*
X145117857Y-58701190D02*
X145117857Y-58439285D01*
X145141666Y-58391666D01*
X145189285Y-58367857D01*
X145284523Y-58367857D01*
X145332142Y-58391666D01*
X145117857Y-58677380D02*
X145165476Y-58701190D01*
X145284523Y-58701190D01*
X145332142Y-58677380D01*
X145355952Y-58629761D01*
X145355952Y-58582142D01*
X145332142Y-58534523D01*
X145284523Y-58510714D01*
X145165476Y-58510714D01*
X145117857Y-58486904D01*
X144903571Y-58677380D02*
X144855952Y-58701190D01*
X144760714Y-58701190D01*
X144713095Y-58677380D01*
X144689285Y-58629761D01*
X144689285Y-58605952D01*
X144713095Y-58558333D01*
X144760714Y-58534523D01*
X144832142Y-58534523D01*
X144879761Y-58510714D01*
X144903571Y-58463095D01*
X144903571Y-58439285D01*
X144879761Y-58391666D01*
X144832142Y-58367857D01*
X144760714Y-58367857D01*
X144713095Y-58391666D01*
X144498809Y-58677380D02*
X144451190Y-58701190D01*
X144355952Y-58701190D01*
X144308333Y-58677380D01*
X144284523Y-58629761D01*
X144284523Y-58605952D01*
X144308333Y-58558333D01*
X144355952Y-58534523D01*
X144427380Y-58534523D01*
X144475000Y-58510714D01*
X144498809Y-58463095D01*
X144498809Y-58439285D01*
X144475000Y-58391666D01*
X144427380Y-58367857D01*
X144355952Y-58367857D01*
X144308333Y-58391666D01*
X143475000Y-58201190D02*
X143570238Y-58201190D01*
X143617857Y-58225000D01*
X143641666Y-58248809D01*
X143689285Y-58320238D01*
X143713095Y-58415476D01*
X143713095Y-58605952D01*
X143689285Y-58653571D01*
X143665476Y-58677380D01*
X143617857Y-58701190D01*
X143522619Y-58701190D01*
X143475000Y-58677380D01*
X143451190Y-58653571D01*
X143427380Y-58605952D01*
X143427380Y-58486904D01*
X143451190Y-58439285D01*
X143475000Y-58415476D01*
X143522619Y-58391666D01*
X143617857Y-58391666D01*
X143665476Y-58415476D01*
X143689285Y-58439285D01*
X143713095Y-58486904D01*
X142832142Y-58510714D02*
X142451190Y-58510714D01*
X141594047Y-58201190D02*
X141832142Y-58201190D01*
X141855952Y-58439285D01*
X141832142Y-58415476D01*
X141784523Y-58391666D01*
X141665476Y-58391666D01*
X141617857Y-58415476D01*
X141594047Y-58439285D01*
X141570238Y-58486904D01*
X141570238Y-58605952D01*
X141594047Y-58653571D01*
X141617857Y-58677380D01*
X141665476Y-58701190D01*
X141784523Y-58701190D01*
X141832142Y-58677380D01*
X141855952Y-58653571D01*
X141260714Y-58201190D02*
X141213095Y-58201190D01*
X141165476Y-58225000D01*
X141141666Y-58248809D01*
X141117857Y-58296428D01*
X141094047Y-58391666D01*
X141094047Y-58510714D01*
X141117857Y-58605952D01*
X141141666Y-58653571D01*
X141165476Y-58677380D01*
X141213095Y-58701190D01*
X141260714Y-58701190D01*
X141308333Y-58677380D01*
X141332142Y-58653571D01*
X141355952Y-58605952D01*
X141379761Y-58510714D01*
X141379761Y-58391666D01*
X141355952Y-58296428D01*
X141332142Y-58248809D01*
X141308333Y-58225000D01*
X141260714Y-58201190D01*
X140498809Y-58367857D02*
X140498809Y-58867857D01*
X140498809Y-58391666D02*
X140451190Y-58367857D01*
X140355952Y-58367857D01*
X140308333Y-58391666D01*
X140284523Y-58415476D01*
X140260714Y-58463095D01*
X140260714Y-58605952D01*
X140284523Y-58653571D01*
X140308333Y-58677380D01*
X140355952Y-58701190D01*
X140451190Y-58701190D01*
X140498809Y-58677380D01*
X139879761Y-58439285D02*
X140046428Y-58439285D01*
X140046428Y-58701190D02*
X140046428Y-58201190D01*
X139808333Y-58201190D01*
%TO.C,BT1*%
X99862229Y-76503688D02*
X99790800Y-76527498D01*
X99766991Y-76551307D01*
X99743181Y-76598926D01*
X99743181Y-76670355D01*
X99766991Y-76717974D01*
X99790800Y-76741783D01*
X99838419Y-76765593D01*
X100028895Y-76765593D01*
X100028895Y-76265593D01*
X99862229Y-76265593D01*
X99814610Y-76289403D01*
X99790800Y-76313212D01*
X99766991Y-76360831D01*
X99766991Y-76408450D01*
X99790800Y-76456069D01*
X99814610Y-76479879D01*
X99862229Y-76503688D01*
X100028895Y-76503688D01*
X99600324Y-76265593D02*
X99314610Y-76265593D01*
X99457467Y-76765593D02*
X99457467Y-76265593D01*
X98886038Y-76765593D02*
X99171752Y-76765593D01*
X99028895Y-76765593D02*
X99028895Y-76265593D01*
X99076514Y-76337022D01*
X99124133Y-76384641D01*
X99171752Y-76408450D01*
D11*
X85108333Y-77875000D02*
X84041666Y-77875000D01*
X84575000Y-78408333D02*
X84575000Y-77341666D01*
X143433333Y-89250000D02*
X142366666Y-89250000D01*
D10*
%TO.C,BT3*%
X141417857Y-59564285D02*
X141346428Y-59588095D01*
X141322619Y-59611904D01*
X141298809Y-59659523D01*
X141298809Y-59730952D01*
X141322619Y-59778571D01*
X141346428Y-59802380D01*
X141394047Y-59826190D01*
X141584523Y-59826190D01*
X141584523Y-59326190D01*
X141417857Y-59326190D01*
X141370238Y-59350000D01*
X141346428Y-59373809D01*
X141322619Y-59421428D01*
X141322619Y-59469047D01*
X141346428Y-59516666D01*
X141370238Y-59540476D01*
X141417857Y-59564285D01*
X141584523Y-59564285D01*
X141155952Y-59326190D02*
X140870238Y-59326190D01*
X141013095Y-59826190D02*
X141013095Y-59326190D01*
X140751190Y-59326190D02*
X140441666Y-59326190D01*
X140608333Y-59516666D01*
X140536904Y-59516666D01*
X140489285Y-59540476D01*
X140465476Y-59564285D01*
X140441666Y-59611904D01*
X140441666Y-59730952D01*
X140465476Y-59778571D01*
X140489285Y-59802380D01*
X140536904Y-59826190D01*
X140679761Y-59826190D01*
X140727380Y-59802380D01*
X140751190Y-59778571D01*
D11*
X170383333Y-60675000D02*
X169316666Y-60675000D01*
X169850000Y-61208333D02*
X169850000Y-60141666D01*
X112008333Y-60625000D02*
X110941666Y-60625000D01*
D13*
%TO.C,BT2*%
X204699994Y-93900000D02*
X148400004Y-93900000D01*
X204699994Y-77150000D02*
X204699994Y-93900000D01*
X148400004Y-77150000D02*
X204699994Y-77150000D01*
X148400004Y-93900000D02*
X148400004Y-77150000D01*
%TO.C,BT1*%
X85625005Y-77150000D02*
X141924995Y-77150000D01*
X141924995Y-77150000D02*
X141924995Y-93900000D01*
X141924995Y-93900000D02*
X85625005Y-93900000D01*
X85625005Y-93900000D02*
X85625005Y-77150000D01*
%TO.C,BT3*%
X112600005Y-76875000D02*
X112600005Y-60125000D01*
X168899995Y-60125000D02*
X168899995Y-76875000D01*
X112600005Y-60125000D02*
X168899995Y-60125000D01*
X168899995Y-76875000D02*
X112600005Y-76875000D01*
%TD*%
M02*
