M48
; DRILL file {KiCad 8.0.2} date 2024-12-18T00:09:26-0500
; FORMAT={-:-/ absolute / inch / decimal}
; #@! TF.CreationDate,2024-12-18T00:09:26-05:00
; #@! TF.GenerationSoftware,Kicad,Pcbnew,8.0.2
; #@! TF.FileFunction,Plated,1,2,PTH
FMAT,2
INCH
; #@! TA.AperFunction,Plated,PTH,ViaDrill
T1C0.0157
; #@! TA.AperFunction,Plated,PTH,ComponentDrill
T2C0.0236
; #@! TA.AperFunction,Plated,PTH,ComponentDrill
T3C0.0295
; #@! TA.AperFunction,Plated,PTH,ComponentDrill
T4C0.0461
%
G90
G05
T1
X3.5817Y-6.1762
X3.5907Y-5.9984
X3.6014Y-5.9605
X3.6092Y-6.216
X3.6132Y-5.923
X3.6275Y-6.1225
X3.6329Y-6.0817
X3.6667Y-6.232
X3.6904Y-6.1059
X3.7038Y-6.0689
X3.7128Y-6.1791
X3.7328Y-5.9955
X3.7352Y-6.0352
X3.7767Y-6.1574
X3.8049Y-6.0067
X3.8111Y-6.2448
X3.8131Y-5.9682
X3.8179Y-5.9292
X3.8819Y-6.2164
X3.8977Y-6.2694
X3.907Y-5.937
X4.094Y-6.0498
X4.1132Y-6.0144
X4.1732Y-6.0425
X4.1929Y-6.216
X4.2156Y-6.1447
X4.2413Y-6.1149
X4.2833Y-5.9756
X4.2845Y-6.2167
X4.3101Y-6.0975
X4.625Y-5.4636
X4.7588Y-5.9154
X4.7815Y-6.0114
X4.7863Y-5.9448
X4.8396Y-5.9734
X4.8415Y-5.9144
X5.3121Y-6.0777
X6.2716Y-6.0148
X7.2726Y-6.2766
X7.7157Y-5.9775
X7.7337Y-5.9115
X7.7756Y-5.8994
X7.7933Y-5.9345
X8.1463Y-5.9701
X8.1481Y-6.2382
X8.151Y-5.8882
X8.1811Y-6.0709
X8.2145Y-5.936
X8.2421Y-6.2702
X8.3396Y-6.1594
X8.3958Y-6.0854
X8.4361Y-6.0822
X8.4983Y-6.1518
X8.5079Y-6.0236
X8.5259Y-6.1194
X8.5335Y-5.9577
X8.5473Y-6.2301
T2
G00X8.646Y-5.841
M15
G01X8.5987Y-5.841
M16
G05
G00X8.646Y-6.2836
M15
G01X8.5987Y-6.2836
M16
G05
G00X8.8034Y-5.841
M15
G01X8.7562Y-5.841
M16
G05
G00X8.8034Y-6.2836
M15
G01X8.7562Y-6.2836
M16
G05
T3
G00X8.4326Y-6.1732
M15
G01X8.4473Y-6.1732
M16
G05
G00X8.4326Y-6.252
M15
G01X8.4473Y-6.252
M16
G05
T4
G00X5.561Y-5.9176
M15
G01X5.561Y-5.982
M16
G05
G00X8.3169Y-5.9176
M15
G01X8.3169Y-5.982
M16
G05
M30
