%TF.GenerationSoftware,KiCad,Pcbnew,(6.0.4)*%
%TF.CreationDate,2024-03-18T00:53:08-04:00*%
%TF.ProjectId,Scoreboard,53636f72-6562-46f6-9172-642e6b696361,rev?*%
%TF.SameCoordinates,Original*%
%TF.FileFunction,Paste,Top*%
%TF.FilePolarity,Positive*%
%FSLAX46Y46*%
G04 Gerber Fmt 4.6, Leading zero omitted, Abs format (unit mm)*
G04 Created by KiCad (PCBNEW (6.0.4)) date 2024-03-18 00:53:08*
%MOMM*%
%LPD*%
G01*
G04 APERTURE LIST*
G04 Aperture macros list*
%AMRoundRect*
0 Rectangle with rounded corners*
0 $1 Rounding radius*
0 $2 $3 $4 $5 $6 $7 $8 $9 X,Y pos of 4 corners*
0 Add a 4 corners polygon primitive as box body*
4,1,4,$2,$3,$4,$5,$6,$7,$8,$9,$2,$3,0*
0 Add four circle primitives for the rounded corners*
1,1,$1+$1,$2,$3*
1,1,$1+$1,$4,$5*
1,1,$1+$1,$6,$7*
1,1,$1+$1,$8,$9*
0 Add four rect primitives between the rounded corners*
20,1,$1+$1,$2,$3,$4,$5,0*
20,1,$1+$1,$4,$5,$6,$7,0*
20,1,$1+$1,$6,$7,$8,$9,0*
20,1,$1+$1,$8,$9,$2,$3,0*%
G04 Aperture macros list end*
%ADD10R,0.800000X0.700000*%
%ADD11RoundRect,0.200000X0.200000X0.275000X-0.200000X0.275000X-0.200000X-0.275000X0.200000X-0.275000X0*%
%ADD12RoundRect,0.150000X0.150000X-0.587500X0.150000X0.587500X-0.150000X0.587500X-0.150000X-0.587500X0*%
%ADD13R,1.600000X1.400000*%
%ADD14R,0.700000X0.800000*%
%ADD15RoundRect,0.225000X0.225000X0.250000X-0.225000X0.250000X-0.225000X-0.250000X0.225000X-0.250000X0*%
%ADD16RoundRect,0.250000X1.075000X-0.312500X1.075000X0.312500X-1.075000X0.312500X-1.075000X-0.312500X0*%
%ADD17RoundRect,0.150000X-0.587500X-0.150000X0.587500X-0.150000X0.587500X0.150000X-0.587500X0.150000X0*%
%ADD18R,0.647700X0.304800*%
%ADD19RoundRect,0.200000X-0.200000X-0.275000X0.200000X-0.275000X0.200000X0.275000X-0.200000X0.275000X0*%
%ADD20RoundRect,0.225000X-0.225000X-0.250000X0.225000X-0.250000X0.225000X0.250000X-0.225000X0.250000X0*%
%ADD21R,2.000000X1.500000*%
%ADD22RoundRect,0.200000X-0.275000X0.200000X-0.275000X-0.200000X0.275000X-0.200000X0.275000X0.200000X0*%
%ADD23RoundRect,0.150000X0.150000X-0.512500X0.150000X0.512500X-0.150000X0.512500X-0.150000X-0.512500X0*%
%ADD24RoundRect,0.150000X-0.150000X0.587500X-0.150000X-0.587500X0.150000X-0.587500X0.150000X0.587500X0*%
%ADD25RoundRect,0.200000X0.275000X-0.200000X0.275000X0.200000X-0.275000X0.200000X-0.275000X-0.200000X0*%
%ADD26R,0.400000X0.400000*%
%ADD27RoundRect,0.218750X-0.256250X0.218750X-0.256250X-0.218750X0.256250X-0.218750X0.256250X0.218750X0*%
%ADD28RoundRect,0.225000X0.250000X-0.225000X0.250000X0.225000X-0.250000X0.225000X-0.250000X-0.225000X0*%
%ADD29RoundRect,0.225000X-0.250000X0.225000X-0.250000X-0.225000X0.250000X-0.225000X0.250000X0.225000X0*%
%ADD30RoundRect,0.250000X-1.075000X0.312500X-1.075000X-0.312500X1.075000X-0.312500X1.075000X0.312500X0*%
%ADD31R,1.160000X0.700000*%
%ADD32R,1.160000X0.800000*%
%ADD33R,1.160000X0.900000*%
G04 APERTURE END LIST*
D10*
%TO.C,D81*%
X175500000Y-42500000D03*
X173000000Y-42500000D03*
X173000000Y-41400000D03*
X175500000Y-41400000D03*
%TD*%
D11*
%TO.C,R8*%
X176125000Y-32650000D03*
X174475000Y-32650000D03*
%TD*%
D10*
%TO.C,D84*%
X175500000Y-62400000D03*
X173000000Y-62400000D03*
X173000000Y-61300000D03*
X175500000Y-61300000D03*
%TD*%
%TO.C,D145*%
X106750000Y-49800000D03*
X109250000Y-49800000D03*
X109250000Y-50900000D03*
X106750000Y-50900000D03*
%TD*%
%TO.C,D30*%
X144200000Y-45600000D03*
X146700000Y-45600000D03*
X146700000Y-46700000D03*
X144200000Y-46700000D03*
%TD*%
D12*
%TO.C,Q25*%
X120350000Y-65625000D03*
X122250000Y-65625000D03*
X121300000Y-63750000D03*
%TD*%
D10*
%TO.C,D62*%
X153100000Y-37200000D03*
X155600000Y-37200000D03*
X155600000Y-38300000D03*
X153100000Y-38300000D03*
%TD*%
%TO.C,D60*%
X153100000Y-65500000D03*
X155600000Y-65500000D03*
X155600000Y-66600000D03*
X153100000Y-66600000D03*
%TD*%
D13*
%TO.C,SW4*%
X196325000Y-92275000D03*
X203525000Y-92275000D03*
X203525000Y-89275000D03*
X196325000Y-89275000D03*
%TD*%
D14*
%TO.C,D65*%
X158550000Y-32850000D03*
X158550000Y-35350000D03*
X157450000Y-35350000D03*
X157450000Y-32850000D03*
%TD*%
%TO.C,D68*%
X166950000Y-52750000D03*
X166950000Y-55250000D03*
X165850000Y-55250000D03*
X165850000Y-52750000D03*
%TD*%
D10*
%TO.C,D12*%
X127400000Y-87125000D03*
X124900000Y-87125000D03*
X124900000Y-86025000D03*
X127400000Y-86025000D03*
%TD*%
D15*
%TO.C,C8*%
X187275000Y-79275000D03*
X185725000Y-79275000D03*
%TD*%
D10*
%TO.C,D59*%
X153100000Y-61300000D03*
X155600000Y-61300000D03*
X155600000Y-62400000D03*
X153100000Y-62400000D03*
%TD*%
%TO.C,D135*%
X100350000Y-70800000D03*
X97850000Y-70800000D03*
X97850000Y-69700000D03*
X100350000Y-69700000D03*
%TD*%
D14*
%TO.C,D153*%
X111100000Y-75150000D03*
X111100000Y-72650000D03*
X112200000Y-72650000D03*
X112200000Y-75150000D03*
%TD*%
%TO.C,D69*%
X157450000Y-75150000D03*
X157450000Y-72650000D03*
X158550000Y-72650000D03*
X158550000Y-75150000D03*
%TD*%
D10*
%TO.C,D148*%
X106750000Y-69700000D03*
X109250000Y-69700000D03*
X109250000Y-70800000D03*
X106750000Y-70800000D03*
%TD*%
D12*
%TO.C,Q24*%
X116925000Y-65625000D03*
X118825000Y-65625000D03*
X117875000Y-63750000D03*
%TD*%
D10*
%TO.C,D36*%
X144200000Y-41400000D03*
X146700000Y-41400000D03*
X146700000Y-42500000D03*
X144200000Y-42500000D03*
%TD*%
%TO.C,D14*%
X69050000Y-49800000D03*
X71550000Y-49800000D03*
X71550000Y-50900000D03*
X69050000Y-50900000D03*
%TD*%
%TO.C,D114*%
X77950000Y-45600000D03*
X80450000Y-45600000D03*
X80450000Y-46700000D03*
X77950000Y-46700000D03*
%TD*%
D16*
%TO.C,R27*%
X189750000Y-63400000D03*
X189750000Y-60475000D03*
%TD*%
D11*
%TO.C,R47*%
X164750000Y-67375000D03*
X163100000Y-67375000D03*
%TD*%
D10*
%TO.C,D90*%
X181900000Y-41400000D03*
X184400000Y-41400000D03*
X184400000Y-42500000D03*
X181900000Y-42500000D03*
%TD*%
%TO.C,D80*%
X175500000Y-70800000D03*
X173000000Y-70800000D03*
X173000000Y-69700000D03*
X175500000Y-69700000D03*
%TD*%
%TO.C,D141*%
X106750000Y-37200000D03*
X109250000Y-37200000D03*
X109250000Y-38300000D03*
X106750000Y-38300000D03*
%TD*%
%TO.C,D7*%
X69050000Y-69700000D03*
X71550000Y-69700000D03*
X71550000Y-70800000D03*
X69050000Y-70800000D03*
%TD*%
%TO.C,D15*%
X69050000Y-65500000D03*
X71550000Y-65500000D03*
X71550000Y-66600000D03*
X69050000Y-66600000D03*
%TD*%
D17*
%TO.C,Q7*%
X88775000Y-90975000D03*
X88775000Y-92875000D03*
X90650000Y-91925000D03*
%TD*%
D10*
%TO.C,D165*%
X129150000Y-46700000D03*
X126650000Y-46700000D03*
X126650000Y-45600000D03*
X129150000Y-45600000D03*
%TD*%
D14*
%TO.C,D121*%
X83400000Y-32850000D03*
X83400000Y-35350000D03*
X82300000Y-35350000D03*
X82300000Y-32850000D03*
%TD*%
D17*
%TO.C,Q2*%
X92675000Y-90975000D03*
X92675000Y-92875000D03*
X94550000Y-91925000D03*
%TD*%
D18*
%TO.C,U3*%
X195820100Y-79150000D03*
X195820100Y-78500001D03*
X195820100Y-77850002D03*
X193750000Y-77850002D03*
X193750000Y-78500001D03*
X193750000Y-79150000D03*
%TD*%
D11*
%TO.C,R53*%
X89850000Y-68875000D03*
X88200000Y-68875000D03*
%TD*%
D10*
%TO.C,D142*%
X106750000Y-45600000D03*
X109250000Y-45600000D03*
X109250000Y-46700000D03*
X106750000Y-46700000D03*
%TD*%
D19*
%TO.C,R39*%
X87575000Y-89450000D03*
X89225000Y-89450000D03*
%TD*%
D20*
%TO.C,C1*%
X195925000Y-85625000D03*
X197475000Y-85625000D03*
%TD*%
D10*
%TO.C,D57*%
X153100000Y-45600000D03*
X155600000Y-45600000D03*
X155600000Y-46700000D03*
X153100000Y-46700000D03*
%TD*%
%TO.C,D17*%
X137400000Y-87125000D03*
X134900000Y-87125000D03*
X134900000Y-86025000D03*
X137400000Y-86025000D03*
%TD*%
%TO.C,D79*%
X175500000Y-66600000D03*
X173000000Y-66600000D03*
X173000000Y-65500000D03*
X175500000Y-65500000D03*
%TD*%
D14*
%TO.C,D132*%
X94900000Y-75150000D03*
X94900000Y-72650000D03*
X96000000Y-72650000D03*
X96000000Y-75150000D03*
%TD*%
D12*
%TO.C,Q12*%
X139225000Y-74525000D03*
X141125000Y-74525000D03*
X140175000Y-72650000D03*
%TD*%
%TO.C,Q19*%
X195450000Y-67125000D03*
X197350000Y-67125000D03*
X196400000Y-65250000D03*
%TD*%
D11*
%TO.C,R57*%
X121475000Y-67375000D03*
X119825000Y-67375000D03*
%TD*%
D16*
%TO.C,R30*%
X114700000Y-61900000D03*
X114700000Y-58975000D03*
%TD*%
D10*
%TO.C,D106*%
X204300000Y-42500000D03*
X201800000Y-42500000D03*
X201800000Y-41400000D03*
X204300000Y-41400000D03*
%TD*%
%TO.C,D21*%
X147400000Y-92125000D03*
X144900000Y-92125000D03*
X144900000Y-91025000D03*
X147400000Y-91025000D03*
%TD*%
%TO.C,D119*%
X77950000Y-69700000D03*
X80450000Y-69700000D03*
X80450000Y-70800000D03*
X77950000Y-70800000D03*
%TD*%
%TO.C,D58*%
X153100000Y-41400000D03*
X155600000Y-41400000D03*
X155600000Y-42500000D03*
X153100000Y-42500000D03*
%TD*%
D14*
%TO.C,D71*%
X162750000Y-32850000D03*
X162750000Y-35350000D03*
X161650000Y-35350000D03*
X161650000Y-32850000D03*
%TD*%
%TO.C,D22*%
X141650000Y-42800000D03*
X141650000Y-45300000D03*
X140550000Y-45300000D03*
X140550000Y-42800000D03*
%TD*%
D12*
%TO.C,Q17*%
X188575000Y-67125000D03*
X190475000Y-67125000D03*
X189525000Y-65250000D03*
%TD*%
D14*
%TO.C,D152*%
X120600000Y-52750000D03*
X120600000Y-55250000D03*
X119500000Y-55250000D03*
X119500000Y-52750000D03*
%TD*%
D21*
%TO.C,BZ1*%
X185175000Y-89252939D03*
X193675000Y-89252939D03*
%TD*%
D20*
%TO.C,C7*%
X195925000Y-87125000D03*
X197475000Y-87125000D03*
%TD*%
D18*
%TO.C,U4*%
X195820100Y-81724998D03*
X195820100Y-81074999D03*
X195820100Y-80425000D03*
X193750000Y-80425000D03*
X193750000Y-81074999D03*
X193750000Y-81724998D03*
%TD*%
D14*
%TO.C,D66*%
X158550000Y-52750000D03*
X158550000Y-55250000D03*
X157450000Y-55250000D03*
X157450000Y-52750000D03*
%TD*%
D10*
%TO.C,D144*%
X106750000Y-65500000D03*
X109250000Y-65500000D03*
X109250000Y-66600000D03*
X106750000Y-66600000D03*
%TD*%
D12*
%TO.C,Q20*%
X84625000Y-67125000D03*
X86525000Y-67125000D03*
X85575000Y-65250000D03*
%TD*%
D11*
%TO.C,R5*%
X138550000Y-32650000D03*
X136900000Y-32650000D03*
%TD*%
D14*
%TO.C,D150*%
X112200000Y-52750000D03*
X112200000Y-55250000D03*
X111100000Y-55250000D03*
X111100000Y-52750000D03*
%TD*%
%TO.C,D131*%
X86500000Y-75150000D03*
X86500000Y-72650000D03*
X87600000Y-72650000D03*
X87600000Y-75150000D03*
%TD*%
D11*
%TO.C,R6*%
X176125000Y-31050000D03*
X174475000Y-31050000D03*
%TD*%
D10*
%TO.C,D108*%
X204300000Y-58200000D03*
X201800000Y-58200000D03*
X201800000Y-57100000D03*
X204300000Y-57100000D03*
%TD*%
D14*
%TO.C,D72*%
X162750000Y-52750000D03*
X162750000Y-55250000D03*
X161650000Y-55250000D03*
X161650000Y-52750000D03*
%TD*%
D10*
%TO.C,D163*%
X129150000Y-70800000D03*
X126650000Y-70800000D03*
X126650000Y-69700000D03*
X129150000Y-69700000D03*
%TD*%
D17*
%TO.C,Q3*%
X84875000Y-90975000D03*
X84875000Y-92875000D03*
X86750000Y-91925000D03*
%TD*%
D10*
%TO.C,D112*%
X204300000Y-66600000D03*
X201800000Y-66600000D03*
X201800000Y-65500000D03*
X204300000Y-65500000D03*
%TD*%
D14*
%TO.C,D123*%
X91800000Y-32850000D03*
X91800000Y-35350000D03*
X90700000Y-35350000D03*
X90700000Y-32850000D03*
%TD*%
%TO.C,D23*%
X141650000Y-62700000D03*
X141650000Y-65200000D03*
X140550000Y-65200000D03*
X140550000Y-62700000D03*
%TD*%
D13*
%TO.C,SW2*%
X175225000Y-86325000D03*
X182425000Y-86325000D03*
X182425000Y-83325000D03*
X175225000Y-83325000D03*
%TD*%
D10*
%TO.C,D35*%
X177425000Y-31025000D03*
X179925000Y-31025000D03*
X179925000Y-32125000D03*
X177425000Y-32125000D03*
%TD*%
D17*
%TO.C,Q6*%
X77100000Y-90950000D03*
X77100000Y-92850000D03*
X78975000Y-91900000D03*
%TD*%
D16*
%TO.C,R24*%
X160875000Y-61900000D03*
X160875000Y-58975000D03*
%TD*%
D22*
%TO.C,R19*%
X133275000Y-79525000D03*
X133275000Y-81175000D03*
%TD*%
D10*
%TO.C,D29*%
X144200000Y-57100000D03*
X146700000Y-57100000D03*
X146700000Y-58200000D03*
X144200000Y-58200000D03*
%TD*%
D14*
%TO.C,D100*%
X191550000Y-52750000D03*
X191550000Y-55250000D03*
X190450000Y-55250000D03*
X190450000Y-52750000D03*
%TD*%
D11*
%TO.C,R44*%
X140550000Y-76275000D03*
X138900000Y-76275000D03*
%TD*%
%TO.C,R3*%
X138550000Y-31125000D03*
X136900000Y-31125000D03*
%TD*%
D10*
%TO.C,D38*%
X144200000Y-49800000D03*
X146700000Y-49800000D03*
X146700000Y-50900000D03*
X144200000Y-50900000D03*
%TD*%
D14*
%TO.C,D149*%
X112200000Y-32850000D03*
X112200000Y-35350000D03*
X111100000Y-35350000D03*
X111100000Y-32850000D03*
%TD*%
D10*
%TO.C,D91*%
X181900000Y-57100000D03*
X184400000Y-57100000D03*
X184400000Y-58200000D03*
X181900000Y-58200000D03*
%TD*%
D19*
%TO.C,R13*%
X106075000Y-31150000D03*
X107725000Y-31150000D03*
%TD*%
D23*
%TO.C,U1*%
X190300000Y-82125000D03*
X191250000Y-82125000D03*
X192200000Y-82125000D03*
X192200000Y-79850000D03*
X191250000Y-79850000D03*
X190300000Y-79850000D03*
%TD*%
D10*
%TO.C,D161*%
X129150000Y-42500000D03*
X126650000Y-42500000D03*
X126650000Y-41400000D03*
X129150000Y-41400000D03*
%TD*%
%TO.C,D24*%
X139825000Y-31025000D03*
X142325000Y-31025000D03*
X142325000Y-32125000D03*
X139825000Y-32125000D03*
%TD*%
D17*
%TO.C,Q5*%
X92075000Y-81075000D03*
X92075000Y-82975000D03*
X93950000Y-82025000D03*
%TD*%
D24*
%TO.C,Q13*%
X153500000Y-81425000D03*
X151600000Y-81425000D03*
X152550000Y-83300000D03*
%TD*%
D11*
%TO.C,R54*%
X92850000Y-68875000D03*
X91200000Y-68875000D03*
%TD*%
D10*
%TO.C,D9*%
X69050000Y-41400000D03*
X71550000Y-41400000D03*
X71550000Y-42500000D03*
X69050000Y-42500000D03*
%TD*%
D16*
%TO.C,R28*%
X192975000Y-63400000D03*
X192975000Y-60475000D03*
%TD*%
D10*
%TO.C,D115*%
X77950000Y-57100000D03*
X80450000Y-57100000D03*
X80450000Y-58200000D03*
X77950000Y-58200000D03*
%TD*%
D19*
%TO.C,R4*%
X143600000Y-31150000D03*
X145250000Y-31150000D03*
%TD*%
D10*
%TO.C,D83*%
X175500000Y-58200000D03*
X173000000Y-58200000D03*
X173000000Y-57100000D03*
X175500000Y-57100000D03*
%TD*%
D14*
%TO.C,D154*%
X119500000Y-75150000D03*
X119500000Y-72650000D03*
X120600000Y-72650000D03*
X120600000Y-75150000D03*
%TD*%
D22*
%TO.C,R15*%
X138950000Y-79525000D03*
X138950000Y-81175000D03*
%TD*%
%TO.C,R45*%
X153350000Y-86925000D03*
X153350000Y-88575000D03*
%TD*%
D10*
%TO.C,D167*%
X129150000Y-66600000D03*
X126650000Y-66600000D03*
X126650000Y-65500000D03*
X129150000Y-65500000D03*
%TD*%
D22*
%TO.C,R36*%
X90325000Y-85475000D03*
X90325000Y-87125000D03*
%TD*%
D10*
%TO.C,D34*%
X167400000Y-92125000D03*
X164900000Y-92125000D03*
X164900000Y-91025000D03*
X167400000Y-91025000D03*
%TD*%
D15*
%TO.C,C2*%
X191800000Y-78150000D03*
X190250000Y-78150000D03*
%TD*%
D11*
%TO.C,R1*%
X197500000Y-84125000D03*
X195850000Y-84125000D03*
%TD*%
D10*
%TO.C,D146*%
X106750000Y-41400000D03*
X109250000Y-41400000D03*
X109250000Y-42500000D03*
X106750000Y-42500000D03*
%TD*%
D11*
%TO.C,R50*%
X193850000Y-68875000D03*
X192200000Y-68875000D03*
%TD*%
D14*
%TO.C,D67*%
X166950000Y-32850000D03*
X166950000Y-35350000D03*
X165850000Y-35350000D03*
X165850000Y-32850000D03*
%TD*%
D10*
%TO.C,D25*%
X157350000Y-82125000D03*
X154850000Y-82125000D03*
X154850000Y-81025000D03*
X157350000Y-81025000D03*
%TD*%
D14*
%TO.C,D74*%
X171150000Y-52750000D03*
X171150000Y-55250000D03*
X170050000Y-55250000D03*
X170050000Y-52750000D03*
%TD*%
D11*
%TO.C,R51*%
X196850000Y-68875000D03*
X195200000Y-68875000D03*
%TD*%
D14*
%TO.C,D98*%
X194650000Y-75150000D03*
X194650000Y-72650000D03*
X195750000Y-72650000D03*
X195750000Y-75150000D03*
%TD*%
D10*
%TO.C,D11*%
X127350000Y-82125000D03*
X124850000Y-82125000D03*
X124850000Y-81025000D03*
X127350000Y-81025000D03*
%TD*%
%TO.C,D147*%
X106750000Y-57100000D03*
X109250000Y-57100000D03*
X109250000Y-58200000D03*
X106750000Y-58200000D03*
%TD*%
D12*
%TO.C,Q18*%
X192025000Y-67125000D03*
X193925000Y-67125000D03*
X192975000Y-65250000D03*
%TD*%
D10*
%TO.C,D78*%
X175500000Y-50900000D03*
X173000000Y-50900000D03*
X173000000Y-49800000D03*
X175500000Y-49800000D03*
%TD*%
%TO.C,D105*%
X204300000Y-38300000D03*
X201800000Y-38300000D03*
X201800000Y-37200000D03*
X204300000Y-37200000D03*
%TD*%
D25*
%TO.C,R37*%
X90325000Y-83975000D03*
X90325000Y-82325000D03*
%TD*%
D10*
%TO.C,D10*%
X69050000Y-61300000D03*
X71550000Y-61300000D03*
X71550000Y-62400000D03*
X69050000Y-62400000D03*
%TD*%
D12*
%TO.C,Q22*%
X91500000Y-67125000D03*
X93400000Y-67125000D03*
X92450000Y-65250000D03*
%TD*%
D11*
%TO.C,R2*%
X200575000Y-87525000D03*
X198925000Y-87525000D03*
%TD*%
D10*
%TO.C,D77*%
X175500000Y-38300000D03*
X173000000Y-38300000D03*
X173000000Y-37200000D03*
X175500000Y-37200000D03*
%TD*%
%TO.C,D61*%
X153100000Y-49800000D03*
X155600000Y-49800000D03*
X155600000Y-50900000D03*
X153100000Y-50900000D03*
%TD*%
%TO.C,D33*%
X167400000Y-87125000D03*
X164900000Y-87125000D03*
X164900000Y-86025000D03*
X167400000Y-86025000D03*
%TD*%
D11*
%TO.C,R49*%
X190850000Y-68875000D03*
X189200000Y-68875000D03*
%TD*%
D14*
%TO.C,D73*%
X171150000Y-32850000D03*
X171150000Y-35350000D03*
X170050000Y-35350000D03*
X170050000Y-32850000D03*
%TD*%
D10*
%TO.C,D138*%
X100350000Y-50900000D03*
X97850000Y-50900000D03*
X97850000Y-49800000D03*
X100350000Y-49800000D03*
%TD*%
D17*
%TO.C,Q4*%
X92075000Y-85075000D03*
X92075000Y-86975000D03*
X93950000Y-86025000D03*
%TD*%
D10*
%TO.C,D19*%
X147350000Y-82125000D03*
X144850000Y-82125000D03*
X144850000Y-81025000D03*
X147350000Y-81025000D03*
%TD*%
D14*
%TO.C,D130*%
X91800000Y-52750000D03*
X91800000Y-55250000D03*
X90700000Y-55250000D03*
X90700000Y-52750000D03*
%TD*%
D22*
%TO.C,R17*%
X149250000Y-79525000D03*
X149250000Y-81175000D03*
%TD*%
D14*
%TO.C,D126*%
X90700000Y-75150000D03*
X90700000Y-72650000D03*
X91800000Y-72650000D03*
X91800000Y-75150000D03*
%TD*%
D15*
%TO.C,C3*%
X187300000Y-82275000D03*
X185750000Y-82275000D03*
%TD*%
D10*
%TO.C,D1*%
X117350000Y-82125000D03*
X114850000Y-82125000D03*
X114850000Y-81025000D03*
X117350000Y-81025000D03*
%TD*%
D14*
%TO.C,D155*%
X116400000Y-32850000D03*
X116400000Y-35350000D03*
X115300000Y-35350000D03*
X115300000Y-32850000D03*
%TD*%
D10*
%TO.C,D107*%
X204300000Y-70800000D03*
X201800000Y-70800000D03*
X201800000Y-69700000D03*
X204300000Y-69700000D03*
%TD*%
%TO.C,D82*%
X175500000Y-46700000D03*
X173000000Y-46700000D03*
X173000000Y-45600000D03*
X175500000Y-45600000D03*
%TD*%
%TO.C,D5*%
X69050000Y-57100000D03*
X71550000Y-57100000D03*
X71550000Y-58200000D03*
X69050000Y-58200000D03*
%TD*%
%TO.C,D110*%
X204300000Y-46700000D03*
X201800000Y-46700000D03*
X201800000Y-45600000D03*
X204300000Y-45600000D03*
%TD*%
D25*
%TO.C,R55*%
X113075000Y-68950000D03*
X113075000Y-67300000D03*
%TD*%
D14*
%TO.C,D76*%
X170050000Y-75150000D03*
X170050000Y-72650000D03*
X171150000Y-72650000D03*
X171150000Y-75150000D03*
%TD*%
D16*
%TO.C,R22*%
X140000000Y-70800000D03*
X140000000Y-67875000D03*
%TD*%
D10*
%TO.C,D2*%
X117400000Y-87125000D03*
X114900000Y-87125000D03*
X114900000Y-86025000D03*
X117400000Y-86025000D03*
%TD*%
D24*
%TO.C,Q11*%
X130625000Y-81425000D03*
X128725000Y-81425000D03*
X129675000Y-83300000D03*
%TD*%
D14*
%TO.C,D122*%
X83400000Y-52750000D03*
X83400000Y-55250000D03*
X82300000Y-55250000D03*
X82300000Y-52750000D03*
%TD*%
D25*
%TO.C,R48*%
X168400000Y-69000000D03*
X168400000Y-67350000D03*
%TD*%
D10*
%TO.C,D133*%
X100350000Y-38300000D03*
X97850000Y-38300000D03*
X97850000Y-37200000D03*
X100350000Y-37200000D03*
%TD*%
%TO.C,D140*%
X100350000Y-62400000D03*
X97850000Y-62400000D03*
X97850000Y-61300000D03*
X100350000Y-61300000D03*
%TD*%
%TO.C,D18*%
X137400000Y-92125000D03*
X134900000Y-92125000D03*
X134900000Y-91025000D03*
X137400000Y-91025000D03*
%TD*%
%TO.C,D113*%
X77950000Y-49800000D03*
X80450000Y-49800000D03*
X80450000Y-50900000D03*
X77950000Y-50900000D03*
%TD*%
D14*
%TO.C,D160*%
X123700000Y-75150000D03*
X123700000Y-72650000D03*
X124800000Y-72650000D03*
X124800000Y-75150000D03*
%TD*%
%TO.C,D128*%
X96000000Y-52750000D03*
X96000000Y-55250000D03*
X94900000Y-55250000D03*
X94900000Y-52750000D03*
%TD*%
D10*
%TO.C,D134*%
X100350000Y-42500000D03*
X97850000Y-42500000D03*
X97850000Y-41400000D03*
X100350000Y-41400000D03*
%TD*%
%TO.C,D31*%
X144200000Y-61300000D03*
X146700000Y-61300000D03*
X146700000Y-62400000D03*
X144200000Y-62400000D03*
%TD*%
D11*
%TO.C,R40*%
X137550000Y-76275000D03*
X135900000Y-76275000D03*
%TD*%
D26*
%TO.C,U2*%
X71609600Y-88192750D03*
X72159600Y-87292750D03*
X72709600Y-88192750D03*
X73259600Y-87292750D03*
X73809600Y-88192750D03*
X74359600Y-87292750D03*
X74909600Y-88192750D03*
X75459600Y-87292750D03*
X76009600Y-88192750D03*
X76559600Y-87292750D03*
X77109600Y-88192750D03*
X77659600Y-87292750D03*
X78209600Y-88192750D03*
X78759600Y-87292750D03*
X79309600Y-88192750D03*
X80409600Y-88192750D03*
X80409600Y-87092750D03*
X79499600Y-86542750D03*
X80409600Y-85992750D03*
X79509600Y-85442750D03*
X80409600Y-84892750D03*
X79509600Y-84342750D03*
X80409600Y-83792750D03*
X79509600Y-83242750D03*
X80409600Y-82692750D03*
X79509600Y-82142750D03*
X80409600Y-81592750D03*
X79509600Y-81042750D03*
X80409600Y-80492750D03*
X80409600Y-79392750D03*
X79309600Y-79392750D03*
X78759600Y-80292750D03*
X78209600Y-79392750D03*
X77749600Y-80292750D03*
X77109600Y-79392750D03*
X76559600Y-80292750D03*
X76009600Y-79392750D03*
X75459600Y-80292750D03*
X74909600Y-79392750D03*
X74359600Y-80292750D03*
X73809600Y-79392750D03*
X73259600Y-80292750D03*
X72709600Y-79392750D03*
X72159600Y-80292750D03*
X71609600Y-79392750D03*
X74359600Y-82442750D03*
X74359600Y-85142750D03*
%TD*%
D10*
%TO.C,D88*%
X181900000Y-65500000D03*
X184400000Y-65500000D03*
X184400000Y-66600000D03*
X181900000Y-66600000D03*
%TD*%
D27*
%TO.C,L1*%
X188775000Y-80750000D03*
X188775000Y-82325000D03*
%TD*%
D10*
%TO.C,D109*%
X204300000Y-50900000D03*
X201800000Y-50900000D03*
X201800000Y-49800000D03*
X204300000Y-49800000D03*
%TD*%
%TO.C,D85*%
X181900000Y-49800000D03*
X184400000Y-49800000D03*
X184400000Y-50900000D03*
X181900000Y-50900000D03*
%TD*%
D15*
%TO.C,C4*%
X187275000Y-80775000D03*
X185725000Y-80775000D03*
%TD*%
D10*
%TO.C,D20*%
X147400000Y-87125000D03*
X144900000Y-87125000D03*
X144900000Y-86025000D03*
X147400000Y-86025000D03*
%TD*%
D14*
%TO.C,D103*%
X190450000Y-75150000D03*
X190450000Y-72650000D03*
X191550000Y-72650000D03*
X191550000Y-75150000D03*
%TD*%
D11*
%TO.C,R46*%
X161750000Y-67375000D03*
X160100000Y-67375000D03*
%TD*%
D14*
%TO.C,D124*%
X87600000Y-52750000D03*
X87600000Y-55250000D03*
X86500000Y-55250000D03*
X86500000Y-52750000D03*
%TD*%
D10*
%TO.C,D86*%
X181900000Y-45600000D03*
X184400000Y-45600000D03*
X184400000Y-46700000D03*
X181900000Y-46700000D03*
%TD*%
D14*
%TO.C,D104*%
X198850000Y-75150000D03*
X198850000Y-72650000D03*
X199950000Y-72650000D03*
X199950000Y-75150000D03*
%TD*%
D16*
%TO.C,R26*%
X167375000Y-61900000D03*
X167375000Y-58975000D03*
%TD*%
D14*
%TO.C,D156*%
X116400000Y-52750000D03*
X116400000Y-55250000D03*
X115300000Y-55250000D03*
X115300000Y-52750000D03*
%TD*%
D16*
%TO.C,R11*%
X92300000Y-63400000D03*
X92300000Y-60475000D03*
%TD*%
D25*
%TO.C,R43*%
X131025000Y-87075000D03*
X131025000Y-85425000D03*
%TD*%
D28*
%TO.C,C5*%
X138125000Y-62975000D03*
X138125000Y-61425000D03*
%TD*%
D10*
%TO.C,D13*%
X127400000Y-92125000D03*
X124900000Y-92125000D03*
X124900000Y-91025000D03*
X127400000Y-91025000D03*
%TD*%
D16*
%TO.C,R20*%
X133450000Y-70800000D03*
X133450000Y-67875000D03*
%TD*%
D12*
%TO.C,Q14*%
X159750000Y-65625000D03*
X161650000Y-65625000D03*
X160700000Y-63750000D03*
%TD*%
D25*
%TO.C,R33*%
X73825000Y-92100000D03*
X73825000Y-90450000D03*
%TD*%
D14*
%TO.C,D125*%
X82300000Y-75150000D03*
X82300000Y-72650000D03*
X83400000Y-72650000D03*
X83400000Y-75150000D03*
%TD*%
D16*
%TO.C,R18*%
X141300000Y-81900000D03*
X141300000Y-78975000D03*
%TD*%
D14*
%TO.C,D75*%
X161650000Y-75150000D03*
X161650000Y-72650000D03*
X162750000Y-72650000D03*
X162750000Y-75150000D03*
%TD*%
D12*
%TO.C,Q23*%
X113475000Y-65625000D03*
X115375000Y-65625000D03*
X114425000Y-63750000D03*
%TD*%
D10*
%TO.C,D162*%
X129150000Y-38300000D03*
X126650000Y-38300000D03*
X126650000Y-37200000D03*
X129150000Y-37200000D03*
%TD*%
%TO.C,D87*%
X181900000Y-69700000D03*
X184400000Y-69700000D03*
X184400000Y-70800000D03*
X181900000Y-70800000D03*
%TD*%
D14*
%TO.C,D158*%
X124800000Y-52750000D03*
X124800000Y-55250000D03*
X123700000Y-55250000D03*
X123700000Y-52750000D03*
%TD*%
%TO.C,D101*%
X199950000Y-32850000D03*
X199950000Y-35350000D03*
X198850000Y-35350000D03*
X198850000Y-32850000D03*
%TD*%
D10*
%TO.C,D120*%
X77950000Y-65500000D03*
X80450000Y-65500000D03*
X80450000Y-66600000D03*
X77950000Y-66600000D03*
%TD*%
%TO.C,D118*%
X77950000Y-41400000D03*
X80450000Y-41400000D03*
X80450000Y-42500000D03*
X77950000Y-42500000D03*
%TD*%
%TO.C,D37*%
X144200000Y-69700000D03*
X146700000Y-69700000D03*
X146700000Y-70800000D03*
X144200000Y-70800000D03*
%TD*%
D14*
%TO.C,D96*%
X195750000Y-52750000D03*
X195750000Y-55250000D03*
X194650000Y-55250000D03*
X194650000Y-52750000D03*
%TD*%
D10*
%TO.C,D168*%
X129150000Y-62400000D03*
X126650000Y-62400000D03*
X126650000Y-61300000D03*
X129150000Y-61300000D03*
%TD*%
D16*
%TO.C,R9*%
X85750000Y-63400000D03*
X85750000Y-60475000D03*
%TD*%
D14*
%TO.C,D93*%
X187350000Y-32850000D03*
X187350000Y-35350000D03*
X186250000Y-35350000D03*
X186250000Y-32850000D03*
%TD*%
D16*
%TO.C,R16*%
X136725000Y-70800000D03*
X136725000Y-67875000D03*
%TD*%
%TO.C,R10*%
X89025000Y-63400000D03*
X89025000Y-60475000D03*
%TD*%
D25*
%TO.C,R35*%
X72250000Y-92100000D03*
X72250000Y-90450000D03*
%TD*%
D10*
%TO.C,D92*%
X181900000Y-61300000D03*
X184400000Y-61300000D03*
X184400000Y-62400000D03*
X181900000Y-62400000D03*
%TD*%
%TO.C,D164*%
X129150000Y-58200000D03*
X126650000Y-58200000D03*
X126650000Y-57100000D03*
X129150000Y-57100000D03*
%TD*%
%TO.C,D136*%
X100350000Y-66600000D03*
X97850000Y-66600000D03*
X97850000Y-65500000D03*
X100350000Y-65500000D03*
%TD*%
D11*
%TO.C,R12*%
X101000000Y-31075000D03*
X99350000Y-31075000D03*
%TD*%
D10*
%TO.C,D111*%
X204300000Y-62400000D03*
X201800000Y-62400000D03*
X201800000Y-61300000D03*
X204300000Y-61300000D03*
%TD*%
%TO.C,D39*%
X144200000Y-65500000D03*
X146700000Y-65500000D03*
X146700000Y-66600000D03*
X144200000Y-66600000D03*
%TD*%
D14*
%TO.C,D102*%
X199950000Y-52750000D03*
X199950000Y-55250000D03*
X198850000Y-55250000D03*
X198850000Y-52750000D03*
%TD*%
D10*
%TO.C,D3*%
X117400000Y-92125000D03*
X114900000Y-92125000D03*
X114900000Y-91025000D03*
X117400000Y-91025000D03*
%TD*%
%TO.C,D64*%
X153100000Y-69700000D03*
X155600000Y-69700000D03*
X155600000Y-70800000D03*
X153100000Y-70800000D03*
%TD*%
D13*
%TO.C,SW3*%
X100025000Y-86350000D03*
X107225000Y-86350000D03*
X107225000Y-83350000D03*
X100025000Y-83350000D03*
%TD*%
D10*
%TO.C,D137*%
X100350000Y-46700000D03*
X97850000Y-46700000D03*
X97850000Y-45600000D03*
X100350000Y-45600000D03*
%TD*%
%TO.C,D32*%
X167350000Y-82125000D03*
X164850000Y-82125000D03*
X164850000Y-81025000D03*
X167350000Y-81025000D03*
%TD*%
D16*
%TO.C,R32*%
X121075000Y-61900000D03*
X121075000Y-58975000D03*
%TD*%
D10*
%TO.C,D143*%
X106750000Y-61300000D03*
X109250000Y-61300000D03*
X109250000Y-62400000D03*
X106750000Y-62400000D03*
%TD*%
D12*
%TO.C,Q16*%
X166650000Y-65625000D03*
X168550000Y-65625000D03*
X167600000Y-63750000D03*
%TD*%
D10*
%TO.C,D6*%
X69050000Y-45600000D03*
X71550000Y-45600000D03*
X71550000Y-46700000D03*
X69050000Y-46700000D03*
%TD*%
D14*
%TO.C,D95*%
X195750000Y-32850000D03*
X195750000Y-35350000D03*
X194650000Y-35350000D03*
X194650000Y-32850000D03*
%TD*%
D11*
%TO.C,R52*%
X86850000Y-68875000D03*
X85200000Y-68875000D03*
%TD*%
D10*
%TO.C,D27*%
X157400000Y-92125000D03*
X154900000Y-92125000D03*
X154900000Y-91025000D03*
X157400000Y-91025000D03*
%TD*%
%TO.C,D16*%
X137350000Y-82125000D03*
X134850000Y-82125000D03*
X134850000Y-81025000D03*
X137350000Y-81025000D03*
%TD*%
D29*
%TO.C,C6*%
X136150000Y-61450000D03*
X136150000Y-63000000D03*
%TD*%
D10*
%TO.C,D139*%
X100350000Y-58200000D03*
X97850000Y-58200000D03*
X97850000Y-57100000D03*
X100350000Y-57100000D03*
%TD*%
%TO.C,D4*%
X69050000Y-37200000D03*
X71550000Y-37200000D03*
X71550000Y-38300000D03*
X69050000Y-38300000D03*
%TD*%
D14*
%TO.C,D129*%
X96000000Y-32850000D03*
X96000000Y-35350000D03*
X94900000Y-35350000D03*
X94900000Y-32850000D03*
%TD*%
D10*
%TO.C,D63*%
X153100000Y-57100000D03*
X155600000Y-57100000D03*
X155600000Y-58200000D03*
X153100000Y-58200000D03*
%TD*%
D16*
%TO.C,R29*%
X196200000Y-63400000D03*
X196200000Y-60475000D03*
%TD*%
D30*
%TO.C,R21*%
X130875000Y-88975000D03*
X130875000Y-91900000D03*
%TD*%
D14*
%TO.C,D159*%
X115300000Y-75150000D03*
X115300000Y-72650000D03*
X116400000Y-72650000D03*
X116400000Y-75150000D03*
%TD*%
D10*
%TO.C,D116*%
X77950000Y-61300000D03*
X80450000Y-61300000D03*
X80450000Y-62400000D03*
X77950000Y-62400000D03*
%TD*%
%TO.C,D8*%
X102275000Y-31025000D03*
X104775000Y-31025000D03*
X104775000Y-32125000D03*
X102275000Y-32125000D03*
%TD*%
%TO.C,D117*%
X77950000Y-37200000D03*
X80450000Y-37200000D03*
X80450000Y-38300000D03*
X77950000Y-38300000D03*
%TD*%
D12*
%TO.C,Q10*%
X132325000Y-74525000D03*
X134225000Y-74525000D03*
X133275000Y-72650000D03*
%TD*%
D10*
%TO.C,D28*%
X144200000Y-37200000D03*
X146700000Y-37200000D03*
X146700000Y-38300000D03*
X144200000Y-38300000D03*
%TD*%
D11*
%TO.C,R14*%
X101000000Y-32600000D03*
X99350000Y-32600000D03*
%TD*%
D19*
%TO.C,R34*%
X90575000Y-89425000D03*
X92225000Y-89425000D03*
%TD*%
D14*
%TO.C,D127*%
X87600000Y-32850000D03*
X87600000Y-35350000D03*
X86500000Y-35350000D03*
X86500000Y-32850000D03*
%TD*%
D17*
%TO.C,Q1*%
X81000000Y-90975000D03*
X81000000Y-92875000D03*
X82875000Y-91925000D03*
%TD*%
D10*
%TO.C,D26*%
X157400000Y-87125000D03*
X154900000Y-87125000D03*
X154900000Y-86025000D03*
X157400000Y-86025000D03*
%TD*%
D14*
%TO.C,D94*%
X187350000Y-52750000D03*
X187350000Y-55250000D03*
X186250000Y-55250000D03*
X186250000Y-52750000D03*
%TD*%
%TO.C,D70*%
X165850000Y-75150000D03*
X165850000Y-72650000D03*
X166950000Y-72650000D03*
X166950000Y-75150000D03*
%TD*%
D19*
%TO.C,R7*%
X181200000Y-31125000D03*
X182850000Y-31125000D03*
%TD*%
D14*
%TO.C,D97*%
X186250000Y-75150000D03*
X186250000Y-72650000D03*
X187350000Y-72650000D03*
X187350000Y-75150000D03*
%TD*%
D19*
%TO.C,R42*%
X132900000Y-76275000D03*
X134550000Y-76275000D03*
%TD*%
D11*
%TO.C,R56*%
X118475000Y-67375000D03*
X116825000Y-67375000D03*
%TD*%
D19*
%TO.C,R41*%
X136000000Y-84125000D03*
X137650000Y-84125000D03*
%TD*%
D14*
%TO.C,D151*%
X120600000Y-32850000D03*
X120600000Y-35350000D03*
X119500000Y-35350000D03*
X119500000Y-32850000D03*
%TD*%
%TO.C,D157*%
X124800000Y-32850000D03*
X124800000Y-35350000D03*
X123700000Y-35350000D03*
X123700000Y-32850000D03*
%TD*%
D30*
%TO.C,R23*%
X150575000Y-88925000D03*
X150575000Y-91850000D03*
%TD*%
D16*
%TO.C,R31*%
X117900000Y-61900000D03*
X117900000Y-58975000D03*
%TD*%
D12*
%TO.C,Q15*%
X163200000Y-65625000D03*
X165100000Y-65625000D03*
X164150000Y-63750000D03*
%TD*%
D14*
%TO.C,D99*%
X191550000Y-32850000D03*
X191550000Y-35350000D03*
X190450000Y-35350000D03*
X190450000Y-32850000D03*
%TD*%
D12*
%TO.C,Q21*%
X88075000Y-67125000D03*
X89975000Y-67125000D03*
X89025000Y-65250000D03*
%TD*%
D10*
%TO.C,D89*%
X181900000Y-37200000D03*
X184400000Y-37200000D03*
X184400000Y-38300000D03*
X181900000Y-38300000D03*
%TD*%
D31*
%TO.C,P1*%
X199815000Y-81150000D03*
D32*
X199815000Y-79130000D03*
D33*
X199815000Y-77900000D03*
D31*
X199815000Y-80150000D03*
D32*
X199815000Y-82170000D03*
D33*
X199815000Y-83400000D03*
%TD*%
D12*
%TO.C,Q9*%
X141350000Y-86525000D03*
X143250000Y-86525000D03*
X142300000Y-84650000D03*
%TD*%
D25*
%TO.C,R38*%
X75350000Y-92100000D03*
X75350000Y-90450000D03*
%TD*%
D10*
%TO.C,D166*%
X129150000Y-50900000D03*
X126650000Y-50900000D03*
X126650000Y-49800000D03*
X129150000Y-49800000D03*
%TD*%
D12*
%TO.C,Q8*%
X135775000Y-74525000D03*
X137675000Y-74525000D03*
X136725000Y-72650000D03*
%TD*%
D16*
%TO.C,R25*%
X164125000Y-61900000D03*
X164125000Y-58975000D03*
%TD*%
M02*
